<svg xmlns="http://www.w3.org/2000/svg" xmlns:xlink="http://www.w3.org/1999/xlink" viewBox="0 0 426.2 406.1"><defs><linearGradient id="e" x1="152" y1="415.8" x2="215" y2="306.7" gradientUnits="userSpaceOnUse"><stop offset="0" stop-color="#fff"/><stop offset="1" stop-color="#e3e1f1"/></linearGradient><linearGradient id="f" x1="238.9" y1="179" x2="293.4" y2="84.6" gradientUnits="userSpaceOnUse"><stop offset="0" stop-color="#fff"/><stop offset="1" stop-color="#c4d3ed"/></linearGradient><linearGradient id="g" x1="-152" y1="286.5" x2="-137.9" y2="286.5" gradientTransform="matrix(-1 0 0 1 223.5 0)" gradientUnits="userSpaceOnUse"><stop offset="0" stop-color="#f36e21"/><stop offset="1" stop-color="#faa41a"/></linearGradient><linearGradient id="a" x1="-243.5" y1="126.4" x2="-238.9" y2="134.3" gradientTransform="translate(372.8)" gradientUnits="userSpaceOnUse"><stop offset="0" stop-color="#c4d3ed"/><stop offset=".4" stop-color="#eef1f9"/><stop offset=".6" stop-color="#ebeef8"/><stop offset=".7" stop-color="#e2e6f4"/><stop offset=".8" stop-color="#d2d9ed"/><stop offset=".9" stop-color="#bcc5e4"/><stop offset="1" stop-color="#a0acd7"/><stop offset="1" stop-color="#96a3d3"/></linearGradient><linearGradient id="b" x1="-237.2" y1="133.6" x2="-232.2" y2="142.3" gradientTransform="translate(372.8)" gradientUnits="userSpaceOnUse"><stop offset="0" stop-color="#acbae0"/><stop offset=".5" stop-color="#c4d3ed"/><stop offset=".7" stop-color="#c1d0eb"/><stop offset=".8" stop-color="#b8c7e6"/><stop offset=".9" stop-color="#aab7de"/><stop offset="1" stop-color="#96a3d3"/></linearGradient><linearGradient id="h" x1="-231" y1="81.6" x2="-222.8" y2="95.9" xlink:href="#a"/><linearGradient id="i" x1="-219.8" y1="94.5" x2="-210.7" y2="110.2" xlink:href="#b"/><linearGradient id="j" x1="286.9" y1="342.9" x2="310.6" y2="342.9" gradientUnits="userSpaceOnUse"><stop offset="0" stop-color="#acbae0"/><stop offset=".7" stop-color="#929ed0"/><stop offset="1" stop-color="#828ec7"/></linearGradient><linearGradient id="k" x1="278.3" y1="322.9" x2="318.8" y2="322.9" gradientUnits="userSpaceOnUse"><stop offset="0" stop-color="#d9e1f3"/><stop offset=".6" stop-color="#bdc9e7"/><stop offset="1" stop-color="#acbae0"/></linearGradient><linearGradient id="l" x1="593.2" y1="315.1" x2="624" y2="315.1" gradientTransform="translate(-310)" gradientUnits="userSpaceOnUse"><stop offset="0" stop-color="#acbae0"/><stop offset=".4" stop-color="#bdc9e7"/><stop offset="1" stop-color="#d9e1f3"/></linearGradient><linearGradient id="m" x1="214.6" y1="254.8" x2="217.3" y2="254.8" gradientUnits="userSpaceOnUse"><stop offset="0" stop-color="#c4d3ed"/><stop offset="1" stop-color="#96a3d3"/></linearGradient><linearGradient id="c" x1="198.6" y1="232.1" x2="148.7" y2="240.1" gradientUnits="userSpaceOnUse"><stop offset="0" stop-color="#e7bac1"/><stop offset="1" stop-color="#ffdea9"/></linearGradient><linearGradient id="n" x1="466.9" y1="340.8" x2="461.1" y2="340.8" gradientTransform="translate(-310)" gradientUnits="userSpaceOnUse"><stop offset="0" stop-color="#2e3192"/><stop offset="1" stop-color="#625ea9"/></linearGradient><linearGradient id="o" x1="-735.9" y1="106.1" x2="-779.5" y2="178.8" gradientTransform="rotate(-20 -107.8 -2381.8)" gradientUnits="userSpaceOnUse"><stop offset="0" stop-color="#f6abcc"/><stop offset="1" stop-color="#ffdea9"/></linearGradient><linearGradient id="p" x1="223.7" y1="249.5" x2="117.9" y2="266.8" xlink:href="#c"/><linearGradient id="q" x1="157.4" y1="299.8" x2="183.3" y2="299.8" gradientUnits="userSpaceOnUse"><stop offset="0" stop-color="#f8991d"/><stop offset="1" stop-color="#f8991d"/></linearGradient><linearGradient id="d" x1="-221.8" y1="281.8" x2="-220" y2="281.8" gradientTransform="translate(470.4)" gradientUnits="userSpaceOnUse"><stop offset="0" stop-color="#746eb2"/><stop offset="1" stop-color="#514ea1"/></linearGradient><linearGradient id="r" x1="376.1" y1="198.6" x2="378" y2="198.6" gradientTransform="matrix(-1 0 0 1 618.4 33.7)" gradientUnits="userSpaceOnUse"><stop offset="0" stop-color="#2e3192"/><stop offset="1" stop-color="#746eb2"/></linearGradient><linearGradient id="s" x1="286.8" y1="267.9" x2="295.8" y2="267.9" gradientUnits="userSpaceOnUse"><stop offset="0" stop-color="#f0587c"/><stop offset="1" stop-color="#c73e6b"/></linearGradient><linearGradient id="t" x1="283.9" y1="260.1" x2="298.5" y2="260.1" gradientUnits="userSpaceOnUse"><stop offset="0" stop-color="#f16f90"/><stop offset="1" stop-color="#dc3d6a"/></linearGradient><linearGradient id="u" x1="595.7" y1="257.3" x2="606.8" y2="257.3" gradientTransform="translate(-310)" gradientUnits="userSpaceOnUse"><stop offset="0" stop-color="#c73e6b"/><stop offset="1" stop-color="#f0587c"/></linearGradient><linearGradient id="v" x1="226.9" y1="267.4" x2="234.2" y2="254.7" gradientUnits="userSpaceOnUse"><stop offset="0" stop-color="#acbae0"/><stop offset=".5" stop-color="#d9e1f3"/><stop offset="1" stop-color="#acbae0"/></linearGradient><linearGradient id="w" x1="-303.4" y1="179.1" x2="-302.1" y2="179.1" xlink:href="#d"/><linearGradient id="x" x1="-737.1" y1="-1714.2" x2="-731" y2="-1714.2" gradientTransform="rotate(-120 318.9 -1064.6)" gradientUnits="userSpaceOnUse"><stop offset="0" stop-color="#514ea1"/><stop offset="1" stop-color="#867fbc"/></linearGradient></defs><path fill="url(#e)" d="M301.7 406.1l62.7-37.3-193.6-112.2L0 358.4l82.4 47.7h219.3z"/><path fill="url(#f)" d="M208.8 14.5v182.6l108.8 62.3V76.8L208.8 14.5z"/><path fill="#d9e1f3" d="M198.5 87.3l6.7 11.5-6.7 3.9V87.3zM198.9 103.3l6.7-3.8 6.7 11.6-13.4-7.8zM212.3 94.8l-6.7 3.8-6.7-11.5 13.4 7.7zM206 99.3l6.7-3.8v15.3L206 99.3z"/><path d="M213 94.7a.3.3 0 0 0 0-.1L198.2 86c-.3-.1-.3.2-.3.2V103a.6.6 0 0 0 .1.4.6.6 0 0 0 .1 0L213 112l.3-.1V94.8a.7.7 0 0 0-.1-.1zm-.3 16.2L206 99.3l6.7-3.8zm-.4-16l-6.7 3.8-6.7-11.6zm-13.8-7.6l6.7 11.6-6.7 3.8zm.4 16l6.7-3.8 5.3 9.2 1.4 2.4zM213.2 94.9z" fill="#fff"/><path fill="#d9e1f3" d="M181.7 77.7l6.7 11.5-6.7 3.8V77.8zM182 93.7l6.8-3.8 6.7 11.5-13.4-7.7zM195.5 85.2l-6.7 3.8-6.7-11.6 13.4 7.8zM189.2 89.7l6.7-3.9v15.4l-6.7-11.5z"/><path d="M196.3 85l-.2-.1-14.6-8.4a.2.2 0 0 0-.3.1v16.8a.6.6 0 0 0 .2.5l14.7 8.5.3-.1V85.2a.7.7 0 0 0-.1-.2zm-.4 16.2l-6.7-11.6 6.7-3.8zm-.4-16l-6.7 3.8-6.7-11.6zm-13.8-7.5l6.7 11.5-6.7 3.9zm.4 16l6.7-3.8 5.3 9.1 1.4 2.4zM196.4 85.3z" fill="#fff"/><path fill="#d9e1f3" d="M198.5 107.1l6.7 11.6-6.7 3.8v-15.4zM198.9 123.2l6.7-3.9 6.7 11.6-13.4-7.7zM212.3 114.6l-6.7 3.9-6.7-11.6 13.4 7.7zM206 119.1l6.7-3.8v15.4L206 119z"/><path d="M213 114.5a.4.4 0 0 0 0-.1l-14.7-8.4c-.3-.1-.3.1-.3.1V123a.7.7 0 0 0 .1.4l.1.1 14.7 8.5c.1 0 .2 0 .3-.2v-17a.7.7 0 0 0-.1-.2zm-.3 16.2L206 119l6.7-3.8zm-.4-16l-6.7 3.8-6.7-11.6zm-13.8-7.5l6.7 11.5-6.7 3.9zm.4 16l6.7-3.9 5.3 9.2 1.4 2.4zM213.2 114.7z" fill="#fff"/><path fill="#d9e1f3" d="M181.7 97.5l6.7 11.5-6.7 3.9V97.5zM182 113.5l6.8-3.8 6.7 11.6-13.4-7.8zM195.5 105l-6.7 3.8-6.7-11.5 13.4 7.7zM189.2 109.5l6.7-3.8V121l-6.7-11.6z"/><path d="M196.3 104.9a.4.4 0 0 0-.2-.2l-14.6-8.4c-.2 0-.3.2-.3.2v16.8a.6.6 0 0 0 .2.4l14.7 8.5c.1.1.2 0 .3-.1V105a.7.7 0 0 0-.1-.1zm-.4 16.1l-6.7-11.5 6.7-3.8zm-.4-16l-6.7 3.9-6.7-11.6zm-13.8-7.5l6.7 11.6-6.7 3.8zm.4 16l6.7-3.8 5.3 9.2 1.4 2.4zM196.4 105.1z" fill="#fff"/><path fill="#d9e1f3" d="M208.8 0v12l108.8 62.2v-12L208.8 0z"/><path d="M310 62.5a3.1 3.1 0 0 1 1.5 2.4c0 1-.7 1.3-1.5.8a3.1 3.1 0 0 1-1.4-2.4c0-.9.7-1.3 1.4-.8z" fill="#f0587c"/><path d="M304.8 59.5a3.1 3.1 0 0 1 1.4 2.4c0 1-.6 1.3-1.4.8a3 3 0 0 1-1.5-2.4c0-.9.7-1.3 1.5-.8zM299.5 56.5a3.1 3.1 0 0 1 1.4 2.4c0 1-.6 1.3-1.4.8a3 3 0 0 1-1.4-2.4c0-.9.6-1.3 1.4-.8z" fill="#eef1f9"/><g style="isolation:isolate"><path fill="#eef1f9" d="M369.1 277l22 12.8-22.6 13.1-22-12.8L369 277z"/><path fill="#acbae0" d="M391.1 289.8v7.3l-22.6 13.1V303l22.6-13.1z"/><path fill="#d9e1f3" d="M368.5 303v7.2l-22-12.8v-7.3l22 12.8z"/></g><path d="M365.2 277.2a7.8 7.8 0 0 1 6.6 0c1.8 1 1.8 2.6 0 3.5a7.8 7.8 0 0 1-6.6 0c-1.9-1-1.9-2.5 0-3.5z" fill="#dc8c28"/><path d="M371.8 277.2a7.8 7.8 0 0 0-6.6 0 2.1 2.1 0 0 0-1.4 1.8h-2.4a3.6 3.6 0 0 1 2-2.7 11 11 0 0 1 10 0 3.6 3.6 0 0 1 2 2.7h-2.3a2.1 2.1 0 0 0-1.3-1.8z" fill="#fdb714"/><path d="M367.3 267a14.8 14.8 0 0 0-.8-6 10 10 0 0 0-9.9-6 4.2 4.2 0 0 0-2.4 1 2 2 0 0 0-.5 2.4 4 4 0 0 0 2 1.2c.7.3 1.5 1 1.4 1.7s-.7 1.1-1.2 1.6a4.1 4.1 0 0 0 1.4 7c1.1.4 2.7.4 3.2 1.7.5 1-.2 2-.2 3.1a3.4 3.4 0 0 0 1.6 2.7 25 25 0 0 0 2.9 1.4 4.7 4.7 0 0 1 2.3 2.2l.5 1.4a1.2 1.2 0 0 0 1.1.6c1.2-.2-.3-5-.5-5.6a32.8 32.8 0 0 1-1-8.2V267z" fill="#625ea9"/><path d="M375.3 245.8a4 4 0 0 0 2-2.5 38.8 38.8 0 0 0 .8-4.2 6 6 0 0 1 2-3.7 4.3 4.3 0 0 1 4-.4c1.2.6 1.7 2.4 1.6 3.7 0 1.5-2 5.5-.7 6.8a1.6 1.6 0 0 0 1.4.3c1-.2 1.7-1 2.8-.4a2.8 2.8 0 0 1 1.4 2.4 5.4 5.4 0 0 1-1.8 3.5c-.7.7-4.2 3.1-3.1 4.2a2.7 2.7 0 0 0 1 .5 1.9 1.9 0 0 1 1 1.3c.4 1.5-1 2.7-2 3.4-2.1 1.4-5.3 2-6.3 4.5-.7 1.8.1 3.6 0 5.4-.3 2.4-2.4 4.1-4.5 5.5s-4.6 2.8-5 5.1c-.2.6 0 2.7-1 2.2-.6-.3-.6-2.4-.7-3-.3-2.7.5-5.3.6-8.1a32 32 0 0 0-.8-8.7c-.5-1.7-1-4.3 1.3-4.9a7.6 7.6 0 0 0 2.6-.7 2.9 2.9 0 0 0 .9-3 14.3 14.3 0 0 0-1.2-3 4.7 4.7 0 0 1-.5-3c.5-1.5 2-2.3 3.2-2.8a6.5 6.5 0 0 0 1-.3z" fill="#c4d3ed"/><path d="M378 249.6c.8-2.3.9-5.1-2-5.5-1.3-.2-2.8.7-3.9 0-1.7-1.2-.3-3.8.3-5.2.9-2.3 1.4-4.5.2-6.8a2.8 2.8 0 0 0-1.3-1.4 2.5 2.5 0 0 0-2.5.5 16 16 0 0 0-1.8 1.9c-.3.3-.7.7-1.2.5a1.2 1.2 0 0 1-.5-.7c-1.3-3-2.2-5.7-5.8-6.2a6 6 0 0 0-5.6 2.5c-4 5.8 4 9.4 5.6 14 .3.9.3 2.1-.5 2.6s-1.8-.1-2.7-.2a2.8 2.8 0 0 0-2.8 2.5 4.7 4.7 0 0 0 1.5 3.7 14.7 14.7 0 0 0 3.3 2.4c4.2 2.4 7.3 6.3 7.3 11.3 0 2.5-.5 5-.2 7.5a18.4 18.4 0 0 0 2.2 7.8c.3.5.3 2.4.8 2.7s1-.6 1.5-1.3c1.3-1.7 1.3-4.8 1.4-6.8a15.7 15.7 0 0 1 2.1-7.2 20.6 20.6 0 0 1 6.2-6.5 10.3 10.3 0 0 0 1.8-1.3 2.8 2.8 0 0 0 .8-2 1.6 1.6 0 0 0-1.3-1.6 2.6 2.6 0 0 0-1.4.4 25 25 0 0 1-4.4 2c-1.3.2-1.6-1-1.3-2a17.3 17.3 0 0 1 2.9-4.9 11.8 11.8 0 0 0 1.3-2.7z" fill="#f0587c"/><path d="M368.8 282.2a.2.2 0 0 0 .2-.1c1-9.2-.1-19.2-.8-24.4a63.4 63.4 0 0 0-6.6-21.3.2.2 0 0 0-.3 0 .2.2 0 0 0 0 .2 63 63 0 0 1 6.5 21.2c.7 5.1 1.8 15.1.8 24.2a.2.2 0 0 0 .2.2z" fill="#625ea9"/><path d="M375.5 279.4l-1.8 11a2.6 2.6 0 0 1-1.6 2.2 8.1 8.1 0 0 1-7.3 0 2.6 2.6 0 0 1-1.5-2.1l-1.9-11 6.9 3.2z" fill="url(#g)"/><path d="M363.8 279c0 .6.4 1.3 1.3 1.8a7.8 7.8 0 0 0 6.6 0c1-.5 1.4-1.2 1.4-1.8h2.4c0 1.1-.6 2.3-2 3.1a11 11 0 0 1-10 0c-1.5-.8-2.2-2-2-3.1z" fill="#fdb714"/><path fill="#c4d3ed" d="M230.4 120.9V142l38.8 22.4v-21.1l-38.8-22.4z"/><path fill="#fff" d="M249 143l16 9.2v-1.3l-16-9.3v1.3zM249 138.5l16 9.3v-1.4l-16-9.2v1.3zM241.5 144a5.1 5.1 0 0 1-2.5-.8 11.6 11.6 0 0 1-5.2-9.1 4 4 0 0 1 1.7-3.6 4 4 0 0 1 4 .3 11.6 11.6 0 0 1 5.2 9.2 4 4 0 0 1-1.7 3.6 3.1 3.1 0 0 1-1.5.4zm-4.5-13a2.3 2.3 0 0 0-1.1.2 3.1 3.1 0 0 0-1.3 2.9 10.6 10.6 0 0 0 4.9 8.4 3.2 3.2 0 0 0 3.1.3 3.1 3.1 0 0 0 1.3-2.9 10.6 10.6 0 0 0-4.9-8.3 4.2 4.2 0 0 0-2-.7z"/><path fill="#746eb2" d="M230.4 39v6.4l38.8 22.4v-6.4L230.4 39z"/><path fill="#fff" d="M230.4 84.7L254 98.4v-1.6l-23.7-13.7v1.6zM230.4 78l38.8 22.4V99l-38.8-22.4V78zM230.4 71.4l38.8 22.4v-1.5l-38.8-22.5v1.6zM230.4 64.8l38.8 22.4v-1.6l-38.8-22.4v1.6zM230.4 58.1l38.8 22.4V79l-38.8-22.4V58zM230.4 51.5L269.2 74v-1.6L230.4 50v1.5z"/><path d="M128.6 128.6a2.5 2.5 0 0 0-2.3-.4l-4 2.3c0 .1-.3.3-.5.3a3.4 3.4 0 0 1 2.5.5l4.3-2.7z" fill="#96a3d3"/><path d="M133.4 134.8l4.5-2.5c0-.3-.8-1.7-1-1.9a10.9 10.9 0 0 0-2.5-2.9 4.7 4.7 0 0 0-3.7-1.2 2.4 2.4 0 0 0-.7.3L126 129l-.5.3c.7-.4 6.5 4 7.8 5.7z" fill="url(#a)"/><path d="M142.6 139.2a7.3 7.3 0 0 0-.1-1.2 8.6 8.6 0 0 0-1.7-3.5 7.3 7.3 0 0 0-1.8-1.7 5.4 5.4 0 0 0-1-.5l-4.6 2.5c.2 0 3 7.9 3.7 9.6l4.3-2.5a3.1 3.1 0 0 0 1.2-2.7z" fill="url(#b)"/><path d="M129.3 129.5a11 11 0 0 1 4.3 5.3 5.3 5.3 0 0 1 .7.3 8.6 8.6 0 0 1 4 6.8c0 2.5-1.8 3.5-4 2.2l-10.2-5.9a7 7 0 0 1-3.1-5.4c0-2 1.4-2.8 3.1-1.8l.2.1c.5-2.2 2.5-3 5-1.6z" fill="#eef1f9"/><path d="M140.5 85.6a4.4 4.4 0 0 0-4-.7l-.2.1-6.9 4-1 .6a6.2 6.2 0 0 1 4.4 1l7.7-5z" fill="#96a3d3"/><path d="M149.2 96.8l8-4.6a36.4 36.4 0 0 0-1.7-3.4 19 19 0 0 0-4.7-5.2c-1.8-1.3-4.2-2.6-6.5-2a4.8 4.8 0 0 0-1.3.5l-7 4-.8.5c1.2-.7 11.6 7.3 14 10.2z" fill="url(#h)"/><path d="M165.6 104.6a12.8 12.8 0 0 0-.3-2.1 15.5 15.5 0 0 0-3-6.4 13.3 13.3 0 0 0-3.2-3 9.4 9.4 0 0 0-2-1l-8 4.7c.3-.1 5.5 14 6.6 17.1l7.8-4.5a5.6 5.6 0 0 0 2-4.8z" fill="url(#i)"/><path d="M141.7 87.2a19.6 19.6 0 0 1 7.7 9.5 7 7 0 0 1 1.4.6 15.4 15.4 0 0 1 7 12.1c0 4.5-3.2 6.3-7 4l-18.3-10.6a12.4 12.4 0 0 1-5.6-9.7c0-3.5 2.5-5 5.6-3.2l.4.2c.9-4 4.5-5.4 8.8-2.9z" fill="#eef1f9"/><path d="M280.2 316.9l7 45.2c0 9 22.3 9 22.6 0l7-45.2z" fill="url(#j)"/><path d="M318.8 315.4l-40.6-.1v3.1c0 16 40 16.2 40.6 0v-3z" fill="url(#k)"/><path d="M311 307.9c-7-4-18.2-4-25 0s-7 10.5 0 14.5 18.2 4 25 0 7-10.5 0-14.5z" fill="url(#l)"/><path d="M286 322.4c7 4 18.2 4 25 0a13.4 13.4 0 0 0 2.3-1.6c-.3-2-1.7-3.8-4.3-5.3a23.3 23.3 0 0 0-21.1 0c-2.5 1.5-3.9 3.3-4.2 5.2a14.5 14.5 0 0 0 2.3 1.7z" fill="#6f7cbc"/><path d="M312.8 307c-8-4.6-20.8-4.6-28.7 0s-7.8 12 .1 16.6 20.8 4.6 28.7 0 7.8-12-.1-16.6zm-1.7 15.3c-6.9 4-18.1 4-25 0s-7-10.5-.2-14.5 18.2-4 25.1 0 7 10.6.1 14.6z" fill="#eef1f9"/><path d="M341.5 69.3l-3-1.8v-6l3 1.7 1.8-4-2.1-3.5 3.8-2.2 2.1 3.7 4.3.4v-3.4l5.3 3v3.4L361 65l2-1.1 3.7 6.5-2 1.2 1.7 6 3 1.7v6l-3-1.7-1.8 4 2 3.6-3.6 2-2.1-3.6-4.3-.5v3.5l-5.3-3.1v-3.4l-4.3-4.5-2.1 1.2-3.7-6.5 2-1.2zm9 11.6l6.8 4 4.8-2.8v-7.9l-4.8-8.3-6.7-3.9-4.8 2.8v7.8z" fill="#d9e1f3"/><path d="M350.8 110.6v-4.7l2.3 1.3 1.4-3-1.6-2.8 2.8-1.6 1.6 2.8 3.3.3v-2.6l4 2.3v2.7l3.3 3.4 1.6-.9 2.9 5-1.6 1 1.3 4.5 2.3 1.3v4.6L372 123l-1.4 3 1.7 2.8-3 1.7-1.5-2.8-3.3-.4v2.7l-4-2.4V125l-3.4-3.5-1.6 1-2.8-5 1.6-1-1.4-4.5zm9.2 10.2l5.2 3 3.7-2.1v-6l-3.7-6.4-5.2-3-3.7 2.1v6z" fill="#c4d3ed"/><path d="M375.1 103.7l-3.1-1.8v-6.4l3.1 1.8 1.9-4.1-2.2-3.8 4-2.3 2.1 3.8 4.5.5v-3.6L391 91v3.6l4.5 4.7 2.2-1.2 4 6.7-2.3 1.3 1.9 6.3 3 1.8v6.3l-3-1.8-2 4.1 2.3 3.9-4 2.2-2.2-3.8-4.5-.5v3.6l-5.5-3.2v-3.6l-4.5-4.7-2.2 1.2-4-6.8 2.3-1.2zm10.9 9l4.3 2.5 3-1.7v-5l-3-5.2-4.3-2.5-3 1.7v5z" fill="#f0587c"/><path d="M402.5 137.7v-4.6l2.3 1.3 1.4-3-1.6-2.8 2.8-1.6 1.6 2.7 3.3.4v-2.7l4 2.4v2.6l3.4 3.5 1.6-1 2.8 5-1.6 1 1.4 4.5 2.2 1.3v4.7L424 150l-1.4 3 1.6 2.8-2.9 1.6-1.6-2.8-3.3-.3v2.7l-4-2.3V152l-3.3-3.5-1.6 1-2.9-5 1.6-1-1.3-4.5zm9.2 10.2l5.2 3 3.7-2v-6l-3.6-6.4-5.2-3-3.7 2v6z" fill="#acbae0"/><g style="isolation:isolate" fill="#c4d3ed"><path d="M393.3 182.7l-.8-.4v8.6l.8.5v-8.7zM412 188l-7-4 1-.6v-.6a.7.7 0 0 0-.3-.3.3.3 0 0 0-.3 0l-1.6.9v.6l1.6 2.7a.9.9 0 0 0 .3.3.3.3 0 0 0 .3 0v-.6l-.9-1.5 6.6 3.8-.1 37.4-11.2-6.5v1l11.6 6.7c.2 0 .4 0 .4-.3l.1-38.3a.9.9 0 0 0-.4-.7zM394.4 206.6a.3.3 0 0 0-.2 0l-1 .5v-5.6l-.7-.5v5.6l-.9-1.5a.8.8 0 0 0-.3-.3.3.3 0 0 0-.3 0v.7l1.6 2.7a1 1 0 0 0 .3.3.4.4 0 0 0 .3 0l1.5-1c.2 0 .2-.3 0-.6a.7.7 0 0 0-.3-.3zM379 205.7a.8.8 0 0 0-.3-.3.3.3 0 0 0-.3 0v.7l.9 1.5-9.2-5.3V188l-.8-.4v14.6a.9.9 0 0 0 .4.7l9.6 5.5-.9.5v.7a.8.8 0 0 0 .3.3.3.3 0 0 0 .3 0l1.6-1v-.6zM370.3 169.4l-.8-.5v8.7l.7.5v-8.7zM393 167.7l-11.1-6.4v-3.6l-.8-.5v3.6l-11.2-6.4c-.2-.1-.4 0-.4.2v4.3l.8.5v-3.8l22.3 12.8v3.8l.8.5v-4.3a.9.9 0 0 0-.4-.7z"/></g><path fill="#f0587c" d="M374 143v10.1l7 4.1.9.5 7 4v-10l-15-8.6z"/><path d="M396 193l-2.7-1.6-.8-.5-2.7-1.5c-2.4-1.4-4.4-.3-4.4 2.4a9.6 9.6 0 0 0 4.3 7.6l2.8 1.6.8.4 2.8 1.6c2.4 1.4 4.3.3 4.3-2.5a9.6 9.6 0 0 0-4.3-7.5z" fill="#f8991d"/><path fill="#c4d3ed" d="M393.4 172.7l-.8-.5-7.2-4v10l7.1 4 .8.5 7.1 4.1v-10l-7-4.1z"/><path fill="#d9e1f3" d="M369.4 177.6l-7-4.1v10l7 4.1.8.5 7.2 4.1v-10l-7.2-4.1-.8-.5z"/><path fill="#c4d3ed" d="M369.5 158.9l-7.2-4.1v10l7.2 4.1.8.5 7 4v-10l-7-4-.8-.5z"/><path fill="#746eb2" d="M385.4 216.5l15 8.7v-10l-15-8.7v10z"/><path d="M283 89.2a.2.2 0 0 0 .1 0c.2 0 .2-.3 0-.5l-1.4-2.4 11.3 6.5c.2.1.3 0 .3-.2a.7.7 0 0 0-.3-.5l-11.3-6.5 1.4-.8v-.6a.7.7 0 0 0-.2-.2.2.2 0 0 0-.2 0l-2 1.1c-.1 0-.2.3 0 .5l2 3.4a.8.8 0 0 0 .2.2zM222.4 105.2a.2.2 0 0 0 .2 0c.2 0 .2-.3 0-.5l-1.4-2.4 11.3 6.5c.2 0 .3 0 .3-.2a.7.7 0 0 0-.3-.5l-11.3-6.6 1.5-.8v-.5a.7.7 0 0 0-.3-.2.2.2 0 0 0-.2 0l-2 1.1v.5l2 3.4a.8.8 0 0 0 .2.2zM279.1 134.5a.7.7 0 0 0 0-.2l-2-3.4a.7.7 0 0 0-.2-.2.2.2 0 0 0-.2 0c-.2 0-.2.3 0 .5l1.4 2.4-11.3-6.5c-.2 0-.3 0-.3.2a.7.7 0 0 0 .3.6l11.3 6.5-1.4.8c-.2 0-.2.3 0 .5a.6.6 0 0 0 .2.2.2.2 0 0 0 .2 0l2-1v-.1c0-.1 0 0 0 0a.2.2 0 0 0 0-.1.7.7 0 0 0 0-.1zM297.3 174.3a.6.6 0 0 0 .3.2.2.2 0 0 0 .2 0l2-1v-.6a.6.6 0 0 0-.2-.2.3.3 0 0 0-.3 0l-1.4.8v-13a.7.7 0 0 0-.3-.6c-.2 0-.3 0-.3.2v13l-1.4-2.4a.8.8 0 0 0-.2-.3.3.3 0 0 0-.3 0v.5zM219 45l-2-3.3a.6.6 0 0 0 0-.2h-.2l-2 1v.5a.8.8 0 0 0 .2.3.2.2 0 0 0 .2 0l1.5-.8v13a.7.7 0 0 0 .3.5c.1.1.3 0 .3-.2v-13l-.3-.5.3.5 1.4 2.5a.6.6 0 0 0 .2.2.2.2 0 0 0 .2 0l-.1-.5z" fill="#fff"/><path fill="#f8991d" d="M230.4 95.5v21.2l38.8 22.4V118l-38.8-22.5z"/><path fill="#fff" d="M249 122l6 3.5V124l-6-3.4v1.3zM249 117.6l16 9.3v-1.4l-16-9.2v1.3zM249 113.2l16 9.2v-1.3l-16-9.2v1.3zM241.5 118.7a5 5 0 0 1-2.5-.8 11.6 11.6 0 0 1-5.2-9.1 3.5 3.5 0 0 1 5.7-3.3 11.6 11.6 0 0 1 5.3 9.1 4 4 0 0 1-1.7 3.7 3 3 0 0 1-1.6.4zm-4.5-13a2.2 2.2 0 0 0-1.1.2 3.1 3.1 0 0 0-1.3 2.9 10.7 10.7 0 0 0 4.9 8.4 3.2 3.2 0 0 0 3.1.3 3.1 3.1 0 0 0 1.3-2.8 10.6 10.6 0 0 0-4.8-8.4 4.1 4.1 0 0 0-2.1-.7z"/><path fill="#f0587c" d="M289.2 112v45.2l18 10.4v-45.3l-18-10.4z"/><path fill="#fff" d="M292.2 152.2l6 3.4v-1.3l-6-3.5v1.4zM292.2 147.8l12 6.9v-1.3l-12-7v1.4zM292.2 143.3l12 7v-1.4l-12-6.9v1.3zM292.2 139l12 6.9v-1.4l-12-6.9v1.3zM292.2 134.6l12 6.9v-1.3l-12-7v1.4zM298.2 121.2a11 11 0 0 1 5 8.6c0 3.2-2.2 4.5-5 2.9a11 11 0 0 1-5-8.6c0-3.2 2.3-4.5 5-3z"/><path fill="#acbae0" d="M311.2 124.7V170l18 10.3V135l-18-10.3z"/><path fill="#fff" d="M314.2 165l6 3.4V167l-6-3.4v1.3zM314.2 160.5l12 7V166l-12-7v1.4zM314.2 156l12 7v-1.3l-12-7v1.4zM314.2 151.7l12 7v-1.4l-12-7v1.4zM314.2 147.3l12 7v-1.4l-12-7v1.4zM320.2 134a11 11 0 0 1 5 8.6c0 3.1-2.2 4.4-5 2.8a11 11 0 0 1-5-8.6c0-3.2 2.3-4.5 5-2.9z"/><path fill="#acbae0" d="M333.2 137.3v45.3l18 10.4v-45.3l-18-10.4z"/><path fill="#fff" d="M336.2 177.5l6 3.5v-1.4l-6-3.4v1.3zM336.2 173.1l12 7v-1.4l-12-7v1.4zM336.2 168.7l12 7v-1.4l-12-7v1.4zM336.2 164.3l12 7v-1.4l-12-7v1.4zM336.2 160l12 6.8v-1.3l-12-7v1.4zM342.2 146.5a11 11 0 0 1 5 8.7c0 3.1-2.2 4.4-5 2.8a11 11 0 0 1-5-8.6c0-3.2 2.3-4.5 5-2.9zM213.8 25v10.6l9.2 5.3V30.3l-9.2-5.3z"/><path fill="#acbae0" d="M198.3 39v24l21 12.1v-24l-21-12.2z"/><path fill="#c4d3ed" d="M191.4 42.9v24l21 12.1V55l-21-12.1z"/><path fill="#f0587c" d="M184.6 47.1v24.1l21 12.1v-24l-21-12.2z"/><path fill="#fff" d="M189.5 67.5l10.3 6v-2l-10.3-6v2zM189.5 63.2l10.3 6v-2l-10.3-6v2zM189.5 58.9l10.3 6v-2l-10.3-6v2z"/><path fill="#eef1f9" d="M168 3.7v5.6l12.3 7.1v-5.6L168 3.7z"/><path fill="#d9e1f3" d="M168 17.3l12.3 7.2v-5.6L168 11.7v5.6z"/><path fill="#96a3d3" d="M168 41.5l12.3 7.2V43L168 35.9v5.6z"/><path fill="#acbae0" d="M168 33.5l12.3 7.1V35L168 28v5.6z"/><path fill="#c4d3ed" d="M168 25.4l12.3 7.1V27L168 19.9v5.6z"/><path fill="#6f7cbc" d="M168 49.6l12.3 7.1v-5.6L168 44v5.6z"/><path fill="#eef1f9" d="M291.5 75.3v21l13.6-2.6 10.4 17.5 8.4-.6 7.8 12v-24l-40.2-23.3z"/><path d="M316.3 95.8c-2-1.2-3.6-.3-3.6 2a8 8 0 0 0 3.6 6.2c2 1.1 3.6.2 3.6-2a7.9 7.9 0 0 0-3.6-6.3z" fill="#f8991d"/><path fill="#96a3d3" d="M324 110.6l-8.5.6-10.4-17.5-13.6 2.7v9.6l40.2 23.3v-6.7l-7.8-12z"/><path fill="#c4d3ed" d="M130.3 13V55l32.8 19V32l-32.8-19z"/><path fill="#96a3d3" d="M160.6 34.6l-27.7-16v16.8l27.7 16V34.6z"/><path fill="#fff" d="M144.2 30.8v7l5.1-.5-5.2-6.5zM133 45.7l17 10v-1.2l-17-9.9v1zM133 41l27.6 16v-1l-27.7-16v1z"/><path fill="#f0587c" d="M133 36.5l27.6 16v-1.1l-27.7-16v1z"/><g><path fill="#6f7cbc" d="M90.3 315.3l4-2.4V212.3l-4 2.4v100.7z"/><path fill="#96a3d3" d="M329 362.9l4.4 2.6V265l-4.4-2.7V363zM250.7 406.1h4.4V305.5L83.6 206.2v8.9l2.3 1.3v96.3l4.4 2.6V219l160.4 93V406z"/><path fill="#6f7cbc" d="M255.1 305.5V406h4.1v-94l74.2-43.2v96.6l4-2.4v-96.6l2.6-1.4v-9l-84.9 49.4z"/><g style="isolation:isolate"><path fill="#eef1f9" d="M342.4 256L256 306.2 81.2 205.1l86.6-50.3L342.4 256z"/><path fill="#acbae0" d="M342.4 256v1.8L256 308.1v-1.9l86.5-50.2z"/><path fill="#d9e1f3" d="M256 306.2v1.9L81.1 206.9V205l174.7 101.1z"/></g><g style="isolation:isolate"><path fill="#96a3d3" d="M217.7 253.5v2.2l14.7-8.5V245l-14.7 8.5z"/><path d="M176.2 231.6a1.2 1.2 0 0 1-.7-1v2.2a1.2 1.2 0 0 0 .7 1l38 22v-2.3z" fill="#c4d3ed"/><path d="M217.7 253.5h-3.5v2.2a3.3 3.3 0 0 0 1.2.4 3.8 3.8 0 0 0 2.3-.4z" fill="url(#m)"/><path d="M191 221l-14.8 8.6a1 1 0 0 0 0 2l38 21.9a3.8 3.8 0 0 0 3.4 0l14.8-8.5z" fill="#d9e1f3"/><path d="M192.7 227.2l1.4.8a.7.7 0 0 0 .6 0l1.3-.8c.2-.1.2-.3 0-.4l-1.3-.7a.7.7 0 0 0-.6 0l-1.4.7c-.1.1-.1.3 0 .4zM195.3 228.7l1.3.7a.7.7 0 0 0 .6 0l1.4-.7c.1-.1.1-.3 0-.4l-1.4-.8a.7.7 0 0 0-.6 0l-1.3.8c-.2 0-.2.3 0 .3zM194.9 229l-1.3-.8a.7.7 0 0 0-.7 0l-1.3.8a.2.2 0 0 0 0 .4l1.4.7a.7.7 0 0 0 .6 0l1.3-.7a.2.2 0 0 0 0-.4zM185.4 228.5l2.6 1.5 1.3.8a.7.7 0 0 0 .7 0l1.3-.8a.2.2 0 0 0 0-.4l-1.3-.7-2.6-1.5a.7.7 0 0 0-.6 0l-1.3.8a.2.2 0 0 0 0 .3zM197.8 230.1l1.3.8a.6.6 0 0 0 .6 0l1.4-.8a.2.2 0 0 0 0-.4l-1.4-.7a.7.7 0 0 0-.6 0l-1.3.7c-.2.1-.2.3 0 .4zM184 231l-1.3-.8a.7.7 0 0 0-.7 0l-1.3.7a.2.2 0 0 0 0 .4l1.3.8a.7.7 0 0 0 .7 0l1.3-.8a.2.2 0 0 0 0-.4zM190.5 231.4l1.3.8a.7.7 0 0 0 .6 0l1.4-.8a.2.2 0 0 0 0-.3l-1.4-.8a.7.7 0 0 0-.6 0l-1.3.8c-.2 0-.2.2 0 .3zM190.1 231.7l-1.3-.7a.7.7 0 0 0-.6 0l-1.4.7a.2.2 0 0 0 0 .4l1.4.8a.7.7 0 0 0 .6 0l1.3-.8c.2-.1.2-.3 0-.4zM186.5 232.4l-1.4-.8a.7.7 0 0 0-.6 0l-1.3.8c-.2 0-.2.2 0 .3l1.3.8a.7.7 0 0 0 .6 0l1.4-.7a.2.2 0 0 0 0-.4zM202.4 233.3l-1.3-.8a.7.7 0 0 0-.6 0l-1.4.8a.2.2 0 0 0 0 .4l1.4.7a.7.7 0 0 0 .6 0l1.3-.7c.2-.1.2-.3 0-.4zM191.5 235.3l-1.3-.8a.7.7 0 0 0-.7 0l-1.3.8c-.2.1-.2.3 0 .4l1.3.7a.7.7 0 0 0 .7 0l1.3-.7c.2-.1.2-.3 0-.4zM198 235.8l1.3.7a.7.7 0 0 0 .7 0l1.3-.7a.2.2 0 0 0 0-.4l-1.4-.8a.7.7 0 0 0-.6 0l-1.3.8c-.2.1-.2.3 0 .4zM194.4 236.4l1.3.8a.7.7 0 0 0 .6 0l1.4-.7c.1-.2.1-.3 0-.4l-1.4-.8a.7.7 0 0 0-.6 0l-1.3.8a.2.2 0 0 0 0 .3zM207.5 236.2l-1.4-.8a.7.7 0 0 0-.6 0l-1.3.8c-.2.1-.2.3 0 .4l1.3.7a.7.7 0 0 0 .6 0l1.4-.7c.1-.1.1-.3 0-.4zM196.9 237.9l1.3.8a.7.7 0 0 0 .7 0l1.3-.8c.1-.1.1-.3 0-.4l-1.4-.7a.7.7 0 0 0-.6 0l-1.3.7a.2.2 0 0 0 0 .4zM203 238.7l1.4.8a.7.7 0 0 0 .6 0l1.3-.8c.2-.1.2-.3 0-.4l-1.3-.8a.7.7 0 0 0-.6 0l-1.4.8c-.1.1-.1.3 0 .4zM212.5 239.1l-1.3-.8a.7.7 0 0 0-.7 0l-1.3.8a.2.2 0 0 0 0 .4l1.3.7a.7.7 0 0 0 .7 0l1.3-.7c.2-.1.2-.3 0-.4zM204.4 242.3l1.4.7a.7.7 0 0 0 .6 0l1.3-.7c.2-.2.2-.3 0-.4l-1.3-.8a.7.7 0 0 0-.7 0l-1.3.8c-.2.1-.2.3 0 .3zM204 242.6l-1.3-.8-1.1-.7-1.4-.8-1.2-.7-1.3-.7-2.5-1.5a.8.8 0 0 0-.6 0l-1.4.8c-.1.1-.1.3 0 .4l2.5 1.4 1.4.8 1.2.7 1.3.7 1.2.7 1.3.8a.7.7 0 0 0 .6 0l1.4-.8a.2.2 0 0 0 0-.3zM220 243.5l-1.3-.8a.7.7 0 0 0-.7 0l-1.3.8a.2.2 0 0 0 0 .3l1.3.8a.7.7 0 0 0 .7 0l1.3-.8c.2 0 .2-.2 0-.3zM214.1 248.3l-1.3-.7a.7.7 0 0 0-.6 0l-1.4.7a.2.2 0 0 0 0 .4l1.4.8a.7.7 0 0 0 .6 0l1.3-.8a.2.2 0 0 0 0-.3zM190.2 225.8l1.4.7a.7.7 0 0 0 .6 0l1.3-.7a.2.2 0 0 0 0-.4l-1.3-.8a.7.7 0 0 0-.7 0l-1.3.8v.3zM187.8 227.1l2.6 1.5a.7.7 0 0 0 .7 0l1.3-.7a.2.2 0 0 0 0-.4l-2.6-1.5a.7.7 0 0 0-.6 0l-1.4.8a.2.2 0 0 0 0 .3zM183 230l2.7 1.4a.7.7 0 0 0 .6 0l1.3-.8a.2.2 0 0 0 0-.3l-2.6-1.5a.7.7 0 0 0-.6 0l-1.3.7a.2.2 0 0 0 0 .4zM197.4 230.4l-1.3-.8a.7.7 0 0 0-.7 0l-1.3.8a.2.2 0 0 0 0 .4l1.3.7a.7.7 0 0 0 .7 0l1.3-.7c.2-.1.2-.3 0-.4zM200.3 231.6l1.3.7a.6.6 0 0 0 .7 0l1.3-.7c.1-.1.1-.3 0-.4l-1.4-.8a.7.7 0 0 0-.6 0l-1.3.8c-.2 0-.2.3 0 .4zM200 231.8l-1.4-.7a.7.7 0 0 0-.6 0l-1.4.7a.2.2 0 0 0 0 .4l1.4.8a.7.7 0 0 0 .6 0l1.4-.8v-.3zM196.3 232.5l-1.4-.7a.7.7 0 0 0-.6 0l-1.3.7a.2.2 0 0 0 0 .4l1.3.8a.7.7 0 0 0 .7 0l1.3-.8c.1-.1.2-.3 0-.4zM202.8 233l1.3.8a.7.7 0 0 0 .7 0l1.3-.8a.2.2 0 0 0 0-.4l-1.3-.7a.7.7 0 0 0-.7 0l-1.3.7a.2.2 0 0 0 0 .4zM189.3 233.6l1.4.7a.7.7 0 0 0 .6 0l1.3-.8c.2 0 .2-.2 0-.3l-1.3-.8a.7.7 0 0 0-.6 0l-1.4.8c-.1 0-.1.2 0 .4zM189 233.8l-1.3-.7a.7.7 0 0 0-.7 0l-1.3.7a.2.2 0 0 0 0 .4l1.3.8a.7.7 0 0 0 .6 0l1.4-.8a.2.2 0 0 0 0-.4zM195.5 234.3l1.3.8a.7.7 0 0 0 .7 0l1.3-.8c.2 0 .2-.2 0-.3l-1.3-.8a.7.7 0 0 0-.7 0l-1.3.8c-.2 0-.2.2 0 .3zM205.3 234.5l1.3.7a.7.7 0 0 0 .7 0l1.3-.7a.2.2 0 0 0 0-.4l-1.3-.8a.7.7 0 0 0-.7 0l-1.3.8c-.2.1-.2.3 0 .4zM191.9 235l1.3.8a.7.7 0 0 0 .6 0l1.3-.8c.2-.1.2-.3 0-.4l-1.3-.7a.7.7 0 0 0-.6 0l-1.3.7a.2.2 0 0 0 0 .4zM205 234.8l-1.3-.8a.7.7 0 0 0-.7 0l-1.3.8a.2.2 0 0 0 0 .3l1.3.8a.7.7 0 0 0 .7 0l1.3-.8v-.3zM207.8 236l1.4.7a.7.7 0 0 0 .6 0l1.3-.8a.2.2 0 0 0 0-.4l-1.3-.7a.7.7 0 0 0-.7 0l-1.3.7c-.2.2-.2.3 0 .4zM194 236.7l-1.3-.7a.7.7 0 0 0-.7 0l-1.3.7c-.2.2-.2.3 0 .4l1.3.8a.7.7 0 0 0 .7 0l1.3-.8c.2-.1.2-.3 0-.4zM200.5 237.2l1.4.8a.7.7 0 0 0 .6 0l1.3-.8a.2.2 0 0 0 0-.3l-1.3-.8a.7.7 0 0 0-.6 0l-1.4.8v.3zM210.3 237.4l1.4.7a.7.7 0 0 0 .6 0l1.3-.7c.2-.1.2-.3 0-.4l-1.3-.8a.8.8 0 0 0-.6 0l-1.4.8c-.1.1-.1.3 0 .4zM210 237.7l-1.3-.8a.7.7 0 0 0-.7 0l-1.3.8c-.2 0-.2.2 0 .3l1.3.8a.7.7 0 0 0 .7 0l1.3-.8a.2.2 0 0 0 0-.3zM212.8 238.8l1.4.8a.7.7 0 0 0 .6 0l1.3-.8c.2 0 .2-.3 0-.4l-1.3-.7a.7.7 0 0 0-.6 0l-1.3.7c-.2.2-.2.3 0 .4zM199.4 239.3l1.3.8a.7.7 0 0 0 .7 0l1.3-.7a.2.2 0 0 0 0-.4l-1.3-.8a.6.6 0 0 0-.7 0l-1.3.8c-.2 0-.2.3 0 .3zM205.6 240.1l1.3.8a.7.7 0 0 0 .6 0l1.4-.8a.2.2 0 0 0 0-.3l-1.4-.8a.7.7 0 0 0-.6 0l-1.3.8c-.2 0-.2.2 0 .3zM215.4 240.3l1.3.7a.7.7 0 0 0 .6 0l1.4-.7c.1-.1.1-.3 0-.4l-1.4-.8a.7.7 0 0 0-.6 0l-1.3.8a.2.2 0 0 0 0 .4zM202 240.8l1.2.8a.7.7 0 0 0 .7 0l1.3-.8a.2.2 0 0 0 0-.4l-1.3-.7a.6.6 0 0 0-.7 0l-1.3.7a.2.2 0 0 0 0 .4zM215 240.6l-1.3-.8a.7.7 0 0 0-.7 0l-1.3.8c-.2 0-.2.2 0 .3l1.3.8a.7.7 0 0 0 .7 0l1.3-.8c.2 0 .2-.2 0-.3zM208 241.6l1.4.8a.7.7 0 0 0 .6 0l1.4-.8a.2.2 0 0 0 0-.4l-1.4-.7a.7.7 0 0 0-.6 0l-1.3.7a.2.2 0 0 0 0 .4zM217.9 241.7l1.3.8a.7.7 0 0 0 .6 0l1.4-.8v-.3l-1.4-.8a.7.7 0 0 0-.6 0l-1.3.7c-.2.1-.2.3 0 .4zM214.2 242.4l1.4.7a.7.7 0 0 0 .6 0l1.3-.7a.2.2 0 0 0 0-.4l-1.3-.8a.7.7 0 0 0-.7 0l-1.3.8a.2.2 0 0 0 0 .4zM213.9 242.7l-1.4-.8a.7.7 0 0 0-.6 0l-1.3.8a.2.2 0 0 0 0 .3l1.3.8a.7.7 0 0 0 .6 0l1.4-.8a.2.2 0 0 0 0-.3zM207 243.7l1.3.8a.7.7 0 0 0 .6 0l1.3-.8c.2-.1.2-.3 0-.4l-1.3-.7a.7.7 0 0 0-.7 0l-1.3.7c-.1.1-.1.3 0 .4zM206.6 244l-1.3-.8a.7.7 0 0 0-.7 0l-1.3.8a.2.2 0 0 0 0 .4l1.3.7a.7.7 0 0 0 .7 0l1.3-.7c.2-.1.2-.3 0-.4zM213.1 244.5l1.3.8a.7.7 0 0 0 .7 0l1.3-.8a.2.2 0 0 0 0-.4l-1.3-.7a.7.7 0 0 0-.7 0l-1.3.7c-.2.1-.2.3 0 .4zM226.2 244.3l-2.5-1.5-.3-.2-1-.6a.7.7 0 0 0-.7 0l-1.3.8c-.2.1-.2.3 0 .4l1 .6.3.1 2.5 1.5a.6.6 0 0 0 .7 0l1.3-.8c.2 0 .2-.3 0-.3zM209.4 245.2l1.4.7a.7.7 0 0 0 .6 0l1.3-.7c.2-.1.2-.3 0-.4l-1.3-.8a.7.7 0 0 0-.6 0l-1.4.8a.2.2 0 0 0 0 .3zM209 245.4l-1.2-.7a.7.7 0 0 0-.7 0l-1.3.7c-.2.1-.2.3 0 .4l1.3.8a.7.7 0 0 0 .7 0l1.3-.8a.2.2 0 0 0 0-.4zM215.6 246l1.4.7a.7.7 0 0 0 .6 0l1.3-.8a.2.2 0 0 0 0-.3l-1.3-.8a.7.7 0 0 0-.7 0l-1.3.8a.2.2 0 0 0 0 .3zM211.6 246.9l-1.3-.8a.7.7 0 0 0-.7 0l-1.3.8c-.1.1-.1.3 0 .4l1.4.7a.7.7 0 0 0 .6 0l1.3-.7a.2.2 0 0 0 0-.4z" fill="#fff"/><path d="M223.8 245.6l-2.6-1.5a.7.7 0 0 0-.6 0l-1.3.8a.2.2 0 0 0 0 .4l.9.5-2 1.2c-.2.1-.2.3 0 .4l1.3.7a.7.7 0 0 0 .6 0l2.4-1.4.5-.2.8-.5c.2-.1.2-.3 0-.4zM219 248.4l-1.6-1-1-.5-2.5-1.5a.7.7 0 0 0-.6 0l-1.4.8c-.1.1-.1.3 0 .4l2.5 1.4 1 .6 1.6 1a.7.7 0 0 0 .7 0l1.3-.8c.2-.1.2-.3 0-.4zM216.6 249.8l-1.3-.8a.7.7 0 0 0-.6 0l-1.4.8v.3l1.4.8a.7.7 0 0 0 .6 0l1.3-.8c.2 0 .2-.2 0-.3z" fill="#fff"/></g><path d="M186.3 231.8l-3.5 1.2.6-.4s3.3-1.2 3.5-1.6-.8-1.4-1.8-1c-.3.2-3.9 1-3.9 1a26.6 26.6 0 0 0 3.3-1.3c.3-.8-.7-1-1.2-1l-2.5.7a5 5 0 0 1 .9-.4c.4 0 .5-.2.5-.4-.1-.8-1.9-.3-2.6 0a8 8 0 0 0-2.6 2l-2.5 3a22.4 22.4 0 0 1-1.7 1.8c-.4.4-11 1.2-12.2 2a26.2 26.2 0 0 0 3.9 6.7 162 162 0 0 0 11.1-3.5l3 .6 3.2-1.2a10.7 10.7 0 0 0 2-1.1 1 1 0 0 0 .3-1.2c-.3-1.6-3 .3-3.8 0l6-4a2 2 0 0 0 .9-1c0-.6-.4-1.1-1-1z" fill="url(#c)"/><path d="M236.8 346.3c-.6-1.7-6-2.9-8.3-2.3s-4 1.5-7.6 3.2l.4.2.7.1c3 .1 4.4 2 4.1 2.8-.4 1.3-5.4 3.5-11.9 3.9a15.5 15.5 0 0 1-7.7-1.6l-.2-.2a16.5 16.5 0 0 0 0 8.8 2.4 2.4 0 0 0 1.3 1.4c2.4 1.1 4.8 2.2 7.4 1.1a23.7 23.7 0 0 0 3.2-1.7c1.2-.7 1.7-2.8 3.1-3.5s2-.4 4-.7c8.3-1.4 11-6.6 11.6-8.3a4.6 4.6 0 0 0 0-3.2z" fill="#2e3192"/><path d="M222 347.5l-.7-.1-.4-.2a8.7 8.7 0 0 1-4-3.1 17.2 17.2 0 0 1-2-5.2l-8.8 3.2a95.7 95.7 0 0 0 .4 10.5 15.5 15.5 0 0 0 7.7 1.6c6.5-.4 11.5-2.6 11.9-4 .3-.7-1-2.6-4.1-2.7z" fill="#625ea9"/><path d="M208.3 332.4c-.3-1.3-3.3-3.5-5-2.2-9.1 6.6-14.9-2.8-15-4.5l-8 3v9.4a15 15 0 0 0 0 8 2 2 0 0 0 1.3 1.3c2.2 1 4.3 2 6.7 1a21.1 21.1 0 0 0 3-1.5c1-.6 1.5-2.6 2.8-3.2s1.7-.4 3.5-.7c7.7-1.3 10.2-6 10.7-7.5a5.4 5.4 0 0 0 0-3z" fill="#2e3192"/><path d="M194.5 284s5.8-2.1 10.2-1.8c5.3.3 11.3 2.9 11.8 15.7 0 0 4 30.1 5.2 35.2l1.1 6.3s-1 7.9-15 9.9c0 0-7.8.1-8.2-5.5l-2.7-38.3z" fill="#514ea1"/><path d="M135.2 379.6l-2.8-1.6h-.2a1.5 1.5 0 0 0-1 0 3.3 3.3 0 0 0-1 .5 5.6 5.6 0 0 0-1.6 2 4.8 4.8 0 0 0-.5 2.1 1.8 1.8 0 0 0 .7 1.6l2.8 1.7z" fill="#867fbc"/><path d="M133.4 379.8a5.5 5.5 0 0 0-2.5 4.4c0 1.6 1.1 2.3 2.5 1.4a5.5 5.5 0 0 0 2.5-4.3c0-1.6-1-2.3-2.5-1.5z" fill="#514ea1"/><path d="M133.4 381.1a3 3 0 0 0-1.4 2.4c0 .9.7 1.2 1.4.8a3 3 0 0 0 1.4-2.4c0-.8-.6-1.2-1.4-.8zM127 365l-2.8-1.6-.2-.1a1.6 1.6 0 0 0-1 0 3 3 0 0 0-1 .6 5.5 5.5 0 0 0-1.6 2 4.8 4.8 0 0 0-.5 2 1.8 1.8 0 0 0 .7 1.7l2.8 1.6z" fill="#867fbc"/><ellipse cx="125.3" cy="368.1" rx="3.6" ry="2.1" transform="rotate(-59.8 125.2 368)" fill="#514ea1"/><path d="M125.3 366.5a3 3 0 0 0-1.4 2.4c0 .8.6 1.2 1.3.8a3 3 0 0 0 1.4-2.4c0-.9-.6-1.3-1.3-.8zM149.2 348.3l-2.9-1.6v-.1a1.6 1.6 0 0 0-1 0 3.1 3.1 0 0 0-1.2.6 5.6 5.6 0 0 0-1.5 2 4.8 4.8 0 0 0-.6 2 1.7 1.7 0 0 0 .8 1.7l2.8 1.6z" fill="#867fbc"/><path d="M147.4 348.5a5.6 5.6 0 0 0-2.6 4.3c0 1.6 1.2 2.3 2.6 1.5a5.6 5.6 0 0 0 2.5-4.4c0-1.6-1.1-2.2-2.5-1.4z" fill="#514ea1"/><path d="M147.4 349.8a3 3 0 0 0-1.4 2.4c0 .9.6 1.2 1.4.8a3 3 0 0 0 1.3-2.4c0-.9-.6-1.2-1.3-.8zM179 353.6l-3-1.6a1.6 1.6 0 0 0-1 0 3.1 3.1 0 0 0-1.2.5 5.6 5.6 0 0 0-1.5 2 4.8 4.8 0 0 0-.5 2.1 1.8 1.8 0 0 0 .7 1.6l2.9 1.7z" fill="#867fbc"/><path d="M177.1 353.8a5.6 5.6 0 0 0-2.5 4.4c0 1.6 1.1 2.2 2.5 1.4a5.6 5.6 0 0 0 2.6-4.4c0-1.6-1.2-2.2-2.6-1.4z" fill="#514ea1"/><path d="M177.1 355.1a3 3 0 0 0-1.3 2.4c0 .9.6 1.2 1.3.8a3 3 0 0 0 1.4-2.4c0-.8-.6-1.2-1.4-.8zM187.3 371l-2.8-1.6-.1-.1a1.5 1.5 0 0 0-1 0 3.3 3.3 0 0 0-1.2.6 5.6 5.6 0 0 0-1.5 2 4.8 4.8 0 0 0-.5 2 1.8 1.8 0 0 0 .7 1.7l2.9 1.6z" fill="#867fbc"/><path d="M185.5 371.1a5.5 5.5 0 0 0-2.5 4.4c0 1.6 1.2 2.3 2.5 1.4a5.5 5.5 0 0 0 2.6-4.3c0-1.6-1.2-2.3-2.6-1.5z" fill="#514ea1"/><path d="M185.5 372.5a3 3 0 0 0-1.3 2.3c0 1 .6 1.3 1.3.8a3 3 0 0 0 1.4-2.4c0-.8-.6-1.2-1.4-.7zM165.6 383.9l-2.8-1.7h-.2a1.6 1.6 0 0 0-1 0 3.1 3.1 0 0 0-1.1.6 5.6 5.6 0 0 0-1.5 2 4.8 4.8 0 0 0-.5 2 1.8 1.8 0 0 0 .7 1.7l2.8 1.5z" fill="#867fbc"/><path d="M163.8 384a5.5 5.5 0 0 0-2.5 4.4c0 1.6 1.1 2.3 2.5 1.5a5.5 5.5 0 0 0 2.5-4.4c0-1.6-1.1-2.3-2.5-1.4z" fill="#514ea1"/><path d="M163.8 385.4a3 3 0 0 0-1.4 2.4c0 .8.6 1.2 1.4.7a3 3 0 0 0 1.4-2.3c0-.9-.6-1.3-1.4-.8z" fill="#867fbc"/><g style="isolation:isolate"><path d="M143 348v2.4c0 .2 7 9.2 7 9.2v-2.3z" fill="#514ea1"/><path d="M159.4 358.8v2.3l18.7-4.8a1.8 1.8 0 0 0 .8-1.6v-1.9z" fill="#2e3192"/><path d="M121 364v2.2a1.4 1.4 0 0 0 .8 1.2 3.5 3.5 0 0 0 1.3.4l25.5-5v-2.3zM158 362v2.3l25.5 10a4.6 4.6 0 0 0 2.2-.3c.6-.1 1.3-.6 1.3-1.3v-2.4z" fill="#514ea1"/><path d="M129.2 378.4v2.4c0 2 3.6 1.8 4.8 1.1l18.6-16.8v-2.3z" fill="#2e3192"/><path d="M152.6 362.8v2.3l6.9 20.8c.6 1.4 3 1.4 4.2 1 .6-.2 1.3-.7 1.3-1.4v-2.3z" fill="#514ea1"/><path d="M186.3 369.1a3.9 3.9 0 0 0-1.3-.4l-25.5-10L178 354a1.2 1.2 0 0 0 0-2.3 4.4 4.4 0 0 0-4 0l-18.6 4.8-7-8.8a1.7 1.7 0 0 0-.7-.7 4.3 4.3 0 0 0-2.7-.4c-1.5.2-2.4 1.1-2 2l6.9 8.7-25.5 5c-1.5-.2-3 .3-3.5 1.2-.2.5 0 1.1.8 1.5a3.5 3.5 0 0 0 1.2.5l25.6-5s-19.2 17.2-19.4 17.5c-.2.5 0 1.2.8 1.6a4.5 4.5 0 0 0 4 0l18.6-16.8 6.9 20.7a1.8 1.8 0 0 0 .7.8 4.3 4.3 0 0 0 2.7.4c1.5-.2 2.4-1.1 2-2l-6.9-20.8 25.5 10c1.5.2 3-.3 3.5-1.2.3-.6 0-1.2-.8-1.6z" fill="#867fbc"/></g><path d="M151.1 320.5v38.8c0 2.3 5.8 2.3 5.8 0v-38.7z" fill="url(#n)"/><path d="M156 319.4a1.3 1.3 0 0 1 0 2.4 4.5 4.5 0 0 1-4 0 1.3 1.3 0 0 1 0-2.4 4.5 4.5 0 0 1 4 0z" fill="#eef1f9"/><g style="isolation:isolate"><path d="M207.4 313.3l-46-26.8a3.8 3.8 0 0 0-3.6.4L109 315l-1.4.8L154 343z" fill="#e46c26"/><path d="M208.9 316.5c0-3.1-2.3-4.4-5-2.8l-48.6 28-1.4.9c0 6.2 4.4 10.4 10 7.2l45-26z" fill="#f58020"/><path d="M153.8 342.6l-46-26.8c0 3.5 1.4 6.3 3.5 7.6l46.1 26.8c-2.2-1.3-3.6-4.1-3.6-7.6z" fill="#f8991d"/></g><path d="M173 270.4a16 16 0 0 1 5.7-2.3c2.6 0 6.3 1 8.4 4 0 0 2.6 4.5 1.2 20.6l-21 11-17.8-15.3z" fill="#46449c"/><path d="M202 309.2l-40 22.4c-6.3 3.4-13 1.6-19.6-1.1-9.5-4-18.4-9.7-20.7-14.3-2-4-1.6-8.3-.6-16l1.7-15.4 40.1 11.8 31.6-12.5c6-2.4 9.8 0 13 3.5s1.9 16.5-5.6 21.6z" fill="#514ea1"/><path d="M116 225.4a12 12 0 0 1 11.8-6.4c6 .4 12.2-.6 18.1 5.2a43.2 43.2 0 0 0 7 5.7c2 1.2 4 2.5 5.6 3.3 6.1 3.3 6.4 6 6.4 6s-.3 28.3.2 33c2 17.1 3.4 35.2 3.4 35.2s-5.3 5.9-16 8c-4.5.9-17.9-3-29.7-12.4 0 0 1.2-11.6-2.6-45.7-2.6-5.1-4.7-9.6-6-14.8s-1-12.1 1.7-17.1z" fill="#f0587c"/><path d="M152.8 186.2S128 209 130.3 210.5s1.4 9 1 10.9c0 .3 3 2.4 6.9 3.2 5 1.1 10 2.2 9.9 1.6a26.1 26.1 0 0 1 1.3-11.8l7.8-6.2.7-6.4 1-3-3.5-2.8.6-4.1a26.4 26.4 0 0 0-3.2-5.7z" fill="url(#o)"/><path d="M154.6 188.2c4-8.4-6-10.9-10.9-8.1-3.8 2.2-11 2.1-14 7-1.2 2-2.9 3.7-3.7 6a12.4 12.4 0 0 0-.8 5.7c.3 3 1.6 5.7 2.7 8.4a13 13 0 0 0 2.4 4.5c1 1 2.4 2.2 4 2.3a9.6 9.6 0 0 0 6.1-2 60 60 0 0 0 5-4.9s1.1 5 1.7 6.5c1.7 4 5.8 2.5 7.7.8a22.7 22.7 0 0 0 3.2-4l.2-2.9-.7-2.3-5.5 3.2-.6-5.9-2.3-5.2c.8-1.2 4.6-7.2 5.5-9z" fill="#46449c"/><path d="M207 244.6c-.4 0-.9.7-.9.7a9.8 9.8 0 0 0 .2-2.3c-.4-.7-1-.8-1.5-.4l-.7 1.9.5-3.7a1 1 0 0 0-1.9-.5l-.8 2.8v-.7a26 26 0 0 0 .7-3.7c-.1-.3-1.2-1-1.7-.3a21.9 21.9 0 0 0-1 2.5l-1.4 3.4.3-1.2a.7.7 0 0 0-.6-.7c-1-.4-1.3.6-1.5 1l-1 2 .2 4.3.3 2.3a10.3 10.3 0 0 1-3.6 5.2c-6.1 4.3-10 7.6-10 7.6s-10.8-18.8-18.2-24.5c-6.3-4.9-22.2.6-12.9 15.4a60.1 60.1 0 0 0 24 20.9 14.4 14.4 0 0 0 6.4 1.1c10.8-.1 17.4-15.7 17.4-15.7l1.4-4 1.7-3 3.3-5.3 1.9-3c.1-.2 1-1.8-.6-2.1z" fill="url(#p)"/><g style="isolation:isolate"><path d="M109 246.7a3.5 3.5 0 0 0-3.4.4l-6 3.4 46.2 28.4 9.2-5.4z" fill="#fdb714"/><path d="M156.4 275.9c-.3-2.5-2.4-3.4-4.7-2l-6 3.4 8.2 65.8 10-5.8z" fill="#f58020"/><path fill="#f8991d" d="M145.8 277.3l-46.1-26.8 8 65.8 46.2 26.8-8.1-65.8z"/></g><path d="M183.3 295.6l-4.3-2.7a2.6 2.6 0 0 0-2.4.3l-19.2 11 4.3 2.7z" fill="url(#q)"/><path d="M161.7 306.9l-4.3-2.6a5.2 5.2 0 0 0-.7.4l-.2.2a7.3 7.3 0 0 0-2.5 5.2v2l4.3 2.6z" fill="#f8991d"/><path d="M184.3 297.7c0-2.1-1.5-3-3.4-2L161.7 307a5.3 5.3 0 0 0-.7.5 7.3 7.3 0 0 0-2.7 5.4v2l26-15z" fill="#f58020"/><path d="M175.7 252.7s-4.2 12.2-22.2 12.2c0 0-12.4-16-2.6-26.7 0 0 15.7-11.5 24.8 14.5z" fill="#f0587c"/><path d="M130.6 222.8l-1.1-2.3-.8-2.2a11.2 11.2 0 0 0 1.3 1.8c2 2.4 7.3 6.2 21.8 4l-2 2.9s-15.8 3.8-19.2-4.2z" fill="#ef3c69"/><path d="M128.7 218.3a1.7 1.7 0 0 1 .5-1 6 6 0 0 1 2.7-1 34 34 0 0 1-.6 5.2s-2.2-1.8-2.6-3.2z" fill="#e03d6a"/><path d="M156 264.3a.4.4 0 0 1-.2 0 17.9 17.9 0 0 1-9.1-14c-.5-5.6 1-9 5.7-12.6a.4.4 0 0 1 .6.6c-4.5 3.6-5.9 6.6-5.4 11.9a17.2 17.2 0 0 0 8.6 13.3.4.4 0 0 1-.2.8zM141.8 230c-4.4 0-9.5-.7-11.9-3.1a4.8 4.8 0 0 1-1.3-4.8.4.4 0 0 1 .6-.3.5.5 0 0 1 .3.5 4 4 0 0 0 1 4c3.5 3.5 14 3 17.3 2.3a.5.5 0 0 1 .5.4.4.4 0 0 1-.3.5 31.5 31.5 0 0 1-6.3.5z" fill="#ef3c69"/><path fill="#96a3d3" d="M225 297L198 281.2l.6-5.4 26.7 15.8-.2 5.4z"/><path fill="#fdb714" d="M165.2 199.3l12.2-7 17.2 10-12.1 7-17.3-10z"/><path fill="#f58020" d="M194.6 202.2v2.1l-12.1 7v-2l12.1-7z"/><path fill="#ffd100" d="M194.6 202.2l-17.1-1.5-.1-8.4 17.2 10z"/><path fill="#f8991d" d="M182.5 209.2v2.2l-17.3-10v-2.1l17.3 10z"/><path d="M251.4 281.2l-.4.3v1.6l24.2-14c.5-.3 1.2-.6 1.2-1.2v-1.7l-25 15z" fill="#514ea1"/><path d="M236 274.5a1 1 0 0 1-.6-.8v1.6a1 1 0 0 0 .6.9l12 7v-3l-12-5.7z" fill="#746eb2"/><path d="M248 280.2v3a3.1 3.1 0 0 0 2.5.1 2.4 2.4 0 0 0 .4-.1v-1.7l-2.9-1.3z" fill="url(#d)"/><path d="M275.8 265.4a.9.9 0 0 1 0 1.7L251 281.4a3.2 3.2 0 0 1-2.9 0l-12-7a.9.9 0 0 1 0-1.7l24.7-14.4a3.2 3.2 0 0 1 3 0z" fill="#867fbc"/><path d="M245.8 277.3c.2.1.2.2 0 .3a.6.6 0 0 1-.6 0l-2.6-1.5c-.2 0-.2-.2 0-.3a.7.7 0 0 1 .6 0zM273.8 267l-21.3 12.3-12.8-7.4 21.3-12.4 12.8 7.5z" fill="#fff"/><path d="M264.4 264.6a4 4 0 0 1 1.9 2h-1.5l-.7.2h-.8a2.3 2.3 0 0 0-1-1l.6-.3.5-.3.5-.3z" fill="#f0587c"/><path d="M264.4 264.6l-.5.3-.5.3-.6.3-.5.3a5.2 5.2 0 0 0-1.8-.6 6.7 6.7 0 0 0-2.1.1 5 5 0 0 0-1.4.5l-.3.2a1.7 1.7 0 0 0-.7 1.2h-3a3.2 3.2 0 0 1 1.3-2 4.2 4.2 0 0 1 .6-.5 8.2 8.2 0 0 1 2.4-.9 11.7 11.7 0 0 1 3.8-.2 9 9 0 0 1 3.3 1z" fill="#2e3192"/><path d="M266.3 266.5a2.4 2.4 0 0 1-.3 2.2l-.7-.1-.7-.2-.7-.1-.7-.2a1.3 1.3 0 0 0 .1-1.2l.8-.1.7-.1.7-.1z" fill="#e9edf7"/><path d="M266 268.7a4.4 4.4 0 0 1-1.5 1.4 7 7 0 0 1-.8.4 10.2 10.2 0 0 1-3.5.7v-.4l-.1-.4v-.5l-.1-.4a5.7 5.7 0 0 0 2-.4l.4-.2a2.4 2.4 0 0 0 .8-.8l.7.1.7.2.7.1z" fill="#8a96cb"/><path d="M260 269.5v.4l.1.5v.4l.1.4a10.8 10.8 0 0 1-3.7-.4 7.9 7.9 0 0 1-1.5-.7 5.3 5.3 0 0 1-1.2-.9 2.6 2.6 0 0 1-.8-2.1h3a1.5 1.5 0 0 0 .5 1.2 2.8 2.8 0 0 0 .6.5 4.4 4.4 0 0 0 .8.3 6.1 6.1 0 0 0 2.1.4z" fill="#514ea1"/><path d="M279 275.6l.8-.4c1-.6-.5-3.4-1.7-2.8l-.7.4z" fill="#c4d3ed"/><path d="M268.4 281.8l10.7-6.2c1-.6-.5-3.4-1.7-2.8l-10.6 6.2z" fill="#625ea9"/><path d="M266.4 279.7c0-.7.5-1 1.2-.7a2.5 2.5 0 0 1 1.1 2c0 .8-.5 1-1.1.7a2.5 2.5 0 0 1-1.2-2z" fill="#c4d3ed"/><path d="M257 288l11-6.4c1-.5-.3-2.7-1.2-2.3l-11 6.5z" fill="#625ea9"/><path d="M255.4 286.3c0-.6.4-.8 1-.5a2 2 0 0 1 .9 1.6c0 .6-.5.8-1 .5a2 2 0 0 1-.9-1.6z" fill="#c4d3ed"/><path d="M256.6 288h.2c.8-.5-.4-2.6-1.2-2h-.1z" fill="#625ea9"/><path d="M255.2 286.5c0 .2-.4.5-.7.9a.4.4 0 0 1 .1 0 .7.7 0 0 1 .4.6.3.3 0 0 1 0 .2 3.2 3.2 0 0 1 1-.2c.5.3.8 0 .8-.5a1.8 1.8 0 0 0-.8-1.4c-.4-.3-.8-.1-.8.4z" fill="#c4d3ed"/><path d="M254.3 287.6c-.2.3-.4.5-.3.6H254.9a.3.3 0 0 0 0-.2.7.7 0 0 0-.3-.6.4.4 0 0 0-.1 0l-.2.2z" fill="#625ea9"/><g style="isolation:isolate"><path fill="#b6c4e5" d="M280.5 274.5l-8.3 4.8v.9l8.3-4.8v-.9z"/><path fill="#ced7ed" d="M272.2 279.3l-.3-.1v.8l.3.2v-.9z"/><path fill="#d9e1f3" d="M280.2 274.4l-8.3 4.8.3.1 8.3-4.8-.3-.1z"/></g><path d="M239.3 231.6l.5.3v1.8l-25-14.6c-.4-.2-1.2-.5-1.2-1.1v-1.8l25.7 15.4z" fill="#746eb2"/><path d="M259.2 222.5a1 1 0 0 0 .6-1v1.8a1 1 0 0 1-.6.9l-16.4 9.4v-3c4.5-2 16.4-8.1 16.4-8.1z" fill="#2e3192"/><path d="M242.9 230.6v3a3.2 3.2 0 0 1-2.7.2 2 2 0 0 1-.4-.2v-1.8c0 .2 1.3-.4 3-1.2z" fill="url(#r)"/><path d="M214.3 215.3a1 1 0 0 0 0 1.8l25.5 14.8a3.3 3.3 0 0 0 3 0l16.4-9.4a1 1 0 0 0 0-1.8L233.7 206a3.3 3.3 0 0 0-3 0z" fill="#514ea1"/><g style="isolation:isolate"><path fill="#fff" d="M300 236l33.5 19.3-22.1 13-33.5-19.4L300 236z"/><path fill="#96a3d3" d="M333.5 255.3v2.3l-22.1 12.9v-2.3l22.1-12.8z"/><path fill="#acbae0" d="M311.4 268.2v2.3l-33.5-19.3v-2.3l33.5 19.3z"/><path fill="#d9e1f3" d="M294 248l-5.6 3.2.4.2 5.6-3.2-.4-.3zM310.7 245.9L295 255l.4.3 15.7-9.2-.4-.2zM316 249l-15.7 9 .4.3 15.7-9.1-.5-.3z"/><path fill="#b6c4e5" d="M325.3 254.3l-6.2 3.6 1.3.8 6.2-3.6-1.3-.8zM319.5 251l-15.7 9.1.8.4 15.6-9-.7-.5zM321.1 252l-15.7 9 .8.4 15.7-9-.8-.5zM322.7 252.8l-15.6 9.2.7.4 15.7-9.1-.8-.5z"/><path fill="#d9e1f3" d="M308 244.4l-15.6 9 .4.3 15.6-9-.4-.3zM309.4 245.1l-15.7 9.1.4.3 15.7-9.1-.4-.3zM312 246.7l-15.7 9 .4.3 15.7-9.1-.4-.3zM313.3 247.4l-15.7 9.1.5.3 15.6-9.1-.4-.3zM314.6 248.2l-15.7 9 .5.3 15.7-9-.5-.3zM317.3 249.7l-15.7 9.1.4.2 15.7-9-.4-.3z"/></g><path d="M301.5 261.6l-1.4-.5v4.5a.8.8 0 0 1 0 .1 1 1 0 0 1 0 .2l1.2.7.2-.3z" fill="#ef3c69"/><path d="M300 265.9a.4.4 0 0 1 0 .1.5.5 0 0 1-.2.1l-5.5 3.2a1.3 1.3 0 0 0-.5.5 1.3 1.3 0 0 0-.2.6.5.5 0 0 0 .2.4l1.3.8 6.5-4.7-.3-.3zM301 259.3h-.2a1.2 1.2 0 0 0-1 .2l-5.5 3.2a1 1 0 0 0-.2.1 1.4 1.4 0 0 0-.2.3 1.3 1.3 0 0 0-.2.7.5.5 0 0 0 .2.4l1.2.7 7.1-4.8z" fill="#f16f90"/><path d="M302.6 261a1 1 0 0 0-1.5-.8l-5.6 3.2a1.4 1.4 0 0 0-.6 1c0 .5.3.7.6.5l5.6-3.2a.2.2 0 0 1 .2 0 .2.2 0 0 1 0 .2v4.5a.7.7 0 0 1 0 .3.7.7 0 0 1-.2.2l-5.6 3.2a1.4 1.4 0 0 0-.6 1c0 .5.3.7.7.4l5.5-3.1a3.2 3.2 0 0 0 1.1-1.2 3.3 3.3 0 0 0 .5-1.6z" fill="#d53d6a"/><path d="M284.2 259v13.5c0 5.5 13.8 5.6 14 0v-13.4z" fill="url(#s)"/><path d="M298.5 257.4H284v1.2c0 5.7 14.4 5.8 14.6 0v-1.2z" fill="url(#t)"/><path d="M296.4 254.4a11.4 11.4 0 0 0-10.4 0c-2.8 1.7-2.8 4.3 0 6a11.4 11.4 0 0 0 10.4 0c2.9-1.6 2.8-4.3 0-6z" fill="#f384a5"/><path d="M295.7 254.7a10 10 0 0 0-9 0c-2.5 1.4-2.5 3.8 0 5.3a10 10 0 0 0 9 0c2.6-1.5 2.5-3.9 0-5.3z" fill="url(#u)"/><path d="M286.7 260a10 10 0 0 0 9 0 5.1 5.1 0 0 0 .9-.6 2.9 2.9 0 0 0-1.6-1.9 8.4 8.4 0 0 0-7.6 0 2.8 2.8 0 0 0-1.5 2 4.9 4.9 0 0 0 .8.5z" fill="#fff"/><path d="M241.4 258.9l-7.7-4.5h-.2a3.8 3.8 0 0 0-1-.3 14.8 14.8 0 0 0-5.5 1 7.7 7.7 0 0 0-4.2 3 11.6 11.6 0 0 0-1.6 4.9v1l7.6 4.4z" fill="url(#v)"/><path d="M234.4 256.9a11.9 11.9 0 0 1 2-.2 3.9 3.9 0 0 1 1.4.2 1.7 1.7 0 0 1 .3.1l-1.3-.8h-.2a3.5 3.5 0 0 0-1-.3 11 11 0 0 0-2.8.2l-.8.2-1 .2 1.3.8 1.1-.2zM232.8 260.2a12.4 12.4 0 0 1 3.8-1.2c5.2-1.2 5.7.2 5.4 1.8l-13.2 7.6c.3-4.6 1.9-7 4-8.2z" fill="#96a3d3"/><path d="M180.3 165.1a1.3 1.3 0 0 0-1.2 0L176 167l1 .5 2.7-1.6 16.8 9.7 1-.5z" fill="#746eb2"/><path d="M169.1 177.8l-.3.2v3l13-7.7c.4-.1.9-.4 1-.8v-3l-13.7 8.3z" fill="#514ea1"/><path d="M157.6 172.8a.8.8 0 0 1-.4-.6v3a.7.7 0 0 0 .4.6l9 5.2v-4l-9-4.2z" fill="#746eb2"/><path d="M166.6 177v4a2.3 2.3 0 0 0 1.8.1 1.3 1.3 0 0 0 .3-.1v-3l-2.1-1z" fill="url(#w)"/><path d="M182.3 168.9a.7.7 0 0 1 0 1.2l-13.5 7.9a2.3 2.3 0 0 1-2.2 0l-9-5.2a.7.7 0 0 1 0-1.2l13.5-8a2.4 2.4 0 0 1 2.2 0z" fill="#867fbc"/><path d="M165.6 173.1a1.5 1.5 0 0 0-1.4 0c-.4.2-.4.6 0 .8a1.6 1.6 0 0 0 1.4 0c.4-.2.4-.6 0-.8z" fill="#f0587c"/><path d="M165.2 173.3a.8.8 0 0 0-.7 0 .2.2 0 0 0 0 .4.7.7 0 0 0 .7 0c.2 0 .2-.3 0-.4z" fill="#f384a5"/><path d="M165 173.4a.4.4 0 0 0-.3 0 .1.1 0 0 0 0 .2.4.4 0 0 0 .3 0c.1 0 .1-.1 0-.2z" fill="#fff"/><path d="M277.6 167.4c.1.1 1.4 1 1.6 1l5-3-83.1-47.6c-1.5-.9-3.6-2.5-5.4-1.5l-5 2.9c.2-.1 84.9 47 86.9 48.2z" fill="#867fbc"/><path d="M284.1 239.7a3.5 3.5 0 0 1-1.4 3.2l5-2.8a3.5 3.5 0 0 0 1.4-3.3v-62.6l-8.7 5.1c1.5 16.3 3.7 60.4 3.7 60.4z" fill="#514ea1"/><path d="M280.4 179.3l8.7-5v-.3a10.7 10.7 0 0 0-3.7-7.6 7.2 7.2 0 0 0-1.2-1l-5 3c.1-.1.6 4.4 1.2 10.9z" fill="url(#x)"/><path d="M189.2 122.5c0-3.2 2.2-4.5 5-3l85 48.8a11 11 0 0 1 5 8.6v62.8c0 3.2-2.3 4.5-5 2.9l-85-48.8a10.9 10.9 0 0 1-5-8.6z" fill="#746eb2"/><path fill="#eef1f9" d="M193.4 124.9l86.1 49.3v62.1l-86-49.2v-62.2z"/><path fill="#6f7cbc" d="M269 174v2.5l-2-1.2v-2.4l2 1.2z"/><path fill="#9993c7" d="M265.5 172v2.4l-2-1.2V171l2 1.2z"/><path fill="#f0587c" d="M272.6 176.1v2.4l-2.1-1.2V175l2 1.2z"/><path fill="#9993c7" d="M202.3 155.5v2.3l21.8 12.6v-2.3l-21.8-12.6zM226.6 169.5v2.4l12.6 7.3v-2.4l-12.6-7.3z"/><path fill="#f0587c" d="M241.7 178.3v2.3l6.6 3.8V182l-6.6-3.8z"/><path fill="#9993c7" d="M224.5 154.8v2.4l14.9 8.6v-2.4l-14.9-8.6zM241.9 164.9v2.3l12.6 7.3v-2.3l-12.6-7.3zM202.3 142v2.4l19.7 11.4v-2.4L202.3 142zM202.3 169v2.3l19.7 11.4v-2.4L202.3 169zM224.3 181.7v2.4l14.9 8.5v-2.3l-14.9-8.6zM219.7 158.8v2.4l21.8 12.6v-2.4l-21.8-12.6z"/><path fill="#f0587c" d="M211 153.8v2.3l6.6 3.8v-2.3l-6.6-3.8z"/><path fill="#9993c7" d="M202.3 148.8v2.3l6.5 3.8v-2.3l-6.5-3.8zM202.3 162.2v2.4l15.1 8.7V171l-15.1-8.8zM229.2 177.8v2.3l21.8 12.6v-2.3l-21.8-12.7z"/><path fill="#f0587c" d="M220 172.5v2.3l6.6 3.8v-2.3l-6.6-3.8z"/></g></svg>