<?xml version="1.0" encoding="iso-8859-1"?>
<!-- Generator: Adobe Illustrator 19.0.0, SVG Export Plug-In . SVG Version: 6.00 Build 0)  -->
<svg version="1.1" id="Capa_1" xmlns="http://www.w3.org/2000/svg" xmlns:xlink="http://www.w3.org/1999/xlink" x="0px" y="0px"
	 viewBox="0 0 488.15 488.15" style="enable-background:new 0 0 488.15 488.15;" xml:space="preserve">
<g>
	<path d="M473.375,162.45l-278.5-160.8c-3.8-2.2-10-2.2-13.9,0l-166,96.5c-3.8,2.2-3.8,5.8,0,8l278.5,160.8c3.9,2.2,10,2.2,13.9,0
		l166.1-96.5C477.175,168.25,477.175,164.65,473.375,162.45z M328.175,229.85c-1.5-1.5-3.4-2.9-5.6-4.1c-14.2-8.2-37.1-8.2-51.2,0
		c-1.1,0.6-2,1.3-2.9,2l-187.6-108.5c1.8-0.7,3.5-1.5,5.1-2.5c14.1-8.2,14-21.5-0.2-29.6c-1.6-0.9-3.2-1.7-4.9-2.4l77.4-45
		c1.2,1,2.5,1.9,4.1,2.9c14.2,8.2,37.1,8.2,51.2,0c1.6-0.9,3-1.9,4.2-3l188.2,108.7c-2.5,0.9-4.8,1.9-7,3.1
		c-14.1,8.2-14,21.5,0.2,29.6c2.2,1.3,4.6,2.3,7.2,3.2L328.175,229.85z M350.875,188.85l-12.3,7.1c-1.9,1.1-4.9,1.1-6.8,0
		l-21.5-12.4c-1.9-1.1-1.9-2.9,0-4l12.3-7.1c1.9-1.1,4.9-1.1,6.9,0l21.5,12.4C352.775,185.95,352.775,187.75,350.875,188.85z
		 M178.075,89.05l-12.3,7.1c-1.9,1.1-4.9,1.1-6.8,0l-21.5-12.4c-1.9-1.1-1.9-2.9,0-4l12.3-7.1c1.9-1.1,4.9-1.1,6.9,0l21.4,12.4
		C179.975,86.15,179.975,87.95,178.075,89.05z M454.575,211.85l21.7,12.5l-174.1,101.1l-5.7-3.3l-16-9.2l-268.6-155.2l21.5-12.5
		l268.7,155.2L454.575,211.85z M280.875,367.35l-269-155.5l21.5-12.5l268.9,155.5l151.9-88.3l21.6,12.5l-173.3,100.8l-5.6-3.2
		L280.875,367.35z M454.575,320.15l21.7,12.5l-174.1,101.1l-5.7-3.3l-16-9.2l-268.6-155.2l21.5-12.5l268.7,155.2L454.575,320.15z
		 M280.875,475.65l-269-155.5l21.5-12.5l268.9,155.5l151.9-88.3l21.6,12.5l-173.3,100.8l-5.6-3.2L280.875,475.65z M299.375,102.25
		c-30.7-17.7-80.3-17.7-110.8,0c-30.4,17.7-30.3,46.4,0.4,64.1c30.6,17.7,80.3,17.7,110.7,0
		C330.175,148.65,329.975,119.95,299.375,102.25z M235.475,143.45h-21.6v-12.5v-12.1l21.6,0.1v12l49.3,0.1v12.5L235.475,143.45z"/>
</g>
<g>
</g>
<g>
</g>
<g>
</g>
<g>
</g>
<g>
</g>
<g>
</g>
<g>
</g>
<g>
</g>
<g>
</g>
<g>
</g>
<g>
</g>
<g>
</g>
<g>
</g>
<g>
</g>
<g>
</g>
</svg>
