<?xml version="1.0" encoding="iso-8859-1"?>
<!-- Generator: Adobe Illustrator 19.0.0, SVG Export Plug-In . SVG Version: 6.00 Build 0)  -->
<svg version="1.1" id="Layer_1" xmlns="http://www.w3.org/2000/svg" xmlns:xlink="http://www.w3.org/1999/xlink" x="0px" y="0px"
	 viewBox="0 0 502 502" style="enable-background:new 0 0 502 502;" xml:space="preserve">
<g>
	<g>
		<polygon style="fill:#29ABE2;" points="432.213,14.952 69.787,14.952 52.474,207.707 449.526,207.707 		"/>
		<rect x="52.474" y="207.707" style="fill:#CCCCCC;" width="397.052" height="220.456"/>
	</g>
	<g>
		<rect x="53.051" y="307.311" style="fill:#FBB03B;" width="62.328" height="60.312"/>
		<rect x="386.621" y="307.311" style="fill:#FBB03B;" width="62.328" height="60.312"/>
	</g>
	<rect x="63.895" y="428.164" style="fill:#333333;" width="61.982" height="58.883"/>
	<rect x="311.569" y="428.164" style="fill:#333333;" width="61.982" height="58.883"/>
	<rect x="126.398" y="428.164" style="fill:#333333;" width="61.982" height="58.883"/>
	<rect x="374.072" y="428.164" style="fill:#333333;" width="61.982" height="58.883"/>
	<rect x="10" y="121.242" style="fill:#CCCCCC;" width="41.96" height="87.147"/>
	<g>
		<rect x="450.04" y="121.242" style="fill:#CCCCCC;" width="41.96" height="87.147"/>
		<g>
			<path d="M321.408,66.504h43.859c5.522,0,10-4.477,10-10c0-5.523-4.478-10-10-10h-43.859c-5.522,0-10,4.477-10,10
				C311.408,62.027,315.886,66.504,321.408,66.504z"/>
			<path d="M109.03,66.504h148.895c5.522,0,10-4.477,10-10c0-5.523-4.478-10-10-10H109.03c-5.522,0-10,4.477-10,10
				C99.03,62.027,103.508,66.504,109.03,66.504z"/>
			<path d="M323.716,349.016H178.284c-5.522,0-10,4.477-10,10s4.478,10,10,10h145.432c5.522,0,10-4.477,10-10
				S329.238,349.016,323.716,349.016z"/>
			<path d="M323.716,305.79H178.284c-5.522,0-10,4.477-10,10s4.478,10,10,10h145.432c5.522,0,10-4.477,10-10
				S329.238,305.79,323.716,305.79z"/>
			<path d="M436.054,497.047c5.522,0,10-4.477,10-10v-48.882h3.473c5.522,0,10-4.477,10-10V218.391H492c5.522,0,10-4.477,10-10
				v-87.147c0-5.523-4.478-10-10-10h-41.098l-8.729-97.185c-0.463-5.155-4.784-9.105-9.96-9.105H69.787
				c-5.176,0-9.497,3.95-9.96,9.105l-8.729,97.185H10c-5.522,0-10,4.477-10,10v87.147c0,5.523,4.478,10,10,10h32.474v209.774
				c0,5.523,4.478,10,10,10h1.422v48.882c0,5.523,4.478,10,10,10H188.38c5.522,0,10-4.477,10-10v-48.882h103.189v48.882
				c0,5.523,4.478,10,10,10H436.054z M62.474,418.165v-40.542h52.905c5.522,0,10-4.477,10-10V307.31c0-5.523-4.478-10-10-10H62.474
				v-79.603h377.053v79.603h-52.905c-5.522,0-10,4.477-10,10v60.313c0,5.523,4.478,10,10,10h52.905v40.542H62.474z M438.949,317.311
				v40.313h-42.328v-40.313H438.949z M63.051,357.622V317.31h42.328v40.313H63.051z M265,197.707H158.182l75.255-25.545
				c5.23-1.775,8.03-7.454,6.256-12.684c-1.775-5.229-7.455-8.032-12.685-6.255L97,197.707H63.412L78.929,24.952h344.143
				l15.517,172.755H325.545l75.255-25.545c5.229-1.775,8.029-7.454,6.255-12.684c-1.775-5.229-7.456-8.032-12.684-6.255L265,197.707
				z M41.96,198.391H20v-67.147h21.96V198.391z M115.877,477.047H73.896v-38.882h41.981V477.047z M178.38,477.047h-41.982v-38.882
				h41.982V477.047z M363.551,477.047H321.57v-38.882h41.981V477.047z M426.054,477.047h-41.981v-38.882h41.981V477.047z
				 M482,198.391h-21.96v-67.147H482V198.391z"/>
		</g>
	</g>
</g>
<g>
</g>
<g>
</g>
<g>
</g>
<g>
</g>
<g>
</g>
<g>
</g>
<g>
</g>
<g>
</g>
<g>
</g>
<g>
</g>
<g>
</g>
<g>
</g>
<g>
</g>
<g>
</g>
<g>
</g>
</svg>
