<?xml version="1.0" encoding="iso-8859-1"?>
<!-- Generator: Adobe Illustrator 19.0.0, SVG Export Plug-In . SVG Version: 6.00 Build 0)  -->
<svg version="1.1" id="Layer_1" xmlns="http://www.w3.org/2000/svg" xmlns:xlink="http://www.w3.org/1999/xlink" x="0px" y="0px"
	 viewBox="0 0 512 512" style="enable-background:new 0 0 512 512;" xml:space="preserve">
<g>
	<g>
		<path style="fill:#1E9ED1;" d="M305.348,93.105c28.471,7.6,60.107,0.235,82.442-22.101l-60.341-60.339l-60.342,60.339
			C278.1,81.994,291.339,89.361,305.348,93.105z"/>
		<path style="fill:#1E9ED1;" d="M93.105,305.348L305.35,93.102c-14.011-3.742-27.25-11.109-38.242-22.099L71.007,267.108
			C81.999,278.098,89.363,291.341,93.105,305.348z"/>
		<path style="fill:#1E9ED1;" d="M93.105,305.348c-3.742-14.009-11.106-27.251-22.098-38.241l-60.339,60.337l60.339,60.338
			c22.332-22.331,29.698-53.963,22.085-82.423L93.105,305.348z"/>
		<path style="fill:#1E9ED1;" d="M206.653,418.89c-28.473-7.6-60.109-0.235-82.444,22.099l60.342,60.344l60.339-60.344
			C233.901,430.003,220.66,422.636,206.653,418.89z"/>
		<path style="fill:#1E9ED1;" d="M418.898,206.644l-212.245,212.25c14.006,3.742,27.248,11.108,38.238,22.095L440.99,244.888
			C430.002,233.896,422.636,220.655,418.898,206.644z"/>
		<path style="fill:#1E9ED1;" d="M418.894,206.646c3.742,14.009,11.108,27.25,22.096,38.242l60.342-60.339l-60.342-60.341
			C418.656,146.541,411.292,178.176,418.894,206.646z"/>
	</g>
	<path style="fill:#00E588;" d="M206.653,418.894l212.245-212.249c-7.606-28.467-0.242-60.104,22.092-82.437l-53.2-53.203
		c-22.336,22.335-53.971,29.701-82.442,22.101L93.105,305.348c7.602,28.468,0.236,60.104-22.098,82.436l53.202,53.204
		C146.545,418.655,178.18,411.29,206.653,418.894L206.653,418.894z M297.862,214.135c27.217,27.214,30.536,68.02,7.412,91.14
		c-23.121,23.122-63.926,19.801-91.14-7.413c-27.217-27.214-30.536-68.019-7.412-91.14
		C229.843,183.599,270.647,186.918,297.862,214.135z"/>
	
		<ellipse transform="matrix(0.7071 0.7071 -0.7071 0.7071 256.0013 -106.0403)" style="fill:#1E9ED1;" cx="256.003" cy="256.001" rx="69.685" ry="59.2"/>
	<g>
		<path style="fill:#000003;" d="M508.875,177.005L395.352,63.483c-0.009-0.007-0.013-0.015-0.021-0.021
			c-0.006-0.007-0.015-0.013-0.021-0.02L334.992,3.124c-4.166-4.165-10.918-4.165-15.085,0L259.603,63.43
			c-0.013,0.012-0.025,0.02-0.035,0.031c-0.013,0.012-0.021,0.023-0.031,0.034L63.467,259.562c-0.002,0.001-0.002,0.002-0.004,0.003
			c0,0.001-0.002,0.002-0.002,0.003L3.124,319.905c-4.164,4.165-4.164,10.919,0,15.086l155.669,155.67h-9.462
			c-5.889,0-10.667,4.777-10.667,10.667c0,5.89,4.775,10.667,10.667,10.667l35.134,0.001c0.029,0,0.059,0.004,0.087,0.004
			c0.029,0,0.059-0.004,0.087-0.004L362.662,512c5.891,0,10.667-4.777,10.667-10.667c0-5.89-4.775-10.667-10.667-10.667
			l-152.355-0.004l238.222-238.225c0.002-0.001,0.004-0.003,0.004-0.004c0.002-0.001,0.004-0.003,0.004-0.005l60.337-60.336
			C513.041,187.925,513.041,181.171,508.875,177.005z M327.449,25.751l44.717,44.716c-12.839,9.643-28.375,14.866-44.717,14.866
			c-16.341,0-31.877-5.223-44.717-14.866L327.449,25.751z M184.551,486.247l-44.708-44.708c26.404-19.769,63.01-19.769,89.417,0
			L184.551,486.247z M441.531,229.265c-9.073-12.112-14.267-26.703-14.819-42.035c-0.21-5.888-5.2-10.506-11.044-10.276
			c-5.888,0.211-10.488,5.155-10.275,11.043c0.746,20.749,8.121,40.43,20.946,56.459L244.46,426.336
			c-5.81-4.649-12.04-8.522-18.55-11.621l10.24-10.241c4.166-4.165,4.166-10.918,0-15.085c-4.164-4.166-10.921-4.165-15.086,0.001
			l-17.817,17.818c-27.073-5.336-56.007,1.045-78.61,19.128l-98.886-98.887l44.715-44.716c9.073,12.11,14.267,26.702,14.819,42.038
			c0.206,5.756,4.938,10.284,10.652,10.284c0.129,0,0.26-0.002,0.389-0.007c5.888-0.211,10.49-5.155,10.277-11.043
			c-0.746-20.751-8.121-40.433-20.946-56.462L267.537,85.664c5.753,4.613,11.954,8.521,18.509,11.659l-10.201,10.2
			c-4.164,4.165-4.164,10.92,0,15.086c2.083,2.082,4.813,3.124,7.543,3.124c2.73,0,5.458-1.042,7.541-3.124l17.764-17.763
			c6.112,1.203,12.387,1.822,18.755,1.822c22.05,0,42.955-7.403,59.913-21.003l98.884,98.885L441.531,229.265z"/>
		<path style="fill:#000003;" d="M94.828,345.138c-5.569-1.914-11.64,1.041-13.561,6.611c-0.512,1.492-1.084,2.99-1.692,4.448
			c-2.267,5.438,0.302,11.683,5.74,13.951c1.342,0.559,2.734,0.825,4.102,0.825c4.175,0,8.14-2.468,9.848-6.563
			c0.781-1.873,1.513-3.795,2.173-5.712C103.357,353.128,100.397,347.057,94.828,345.138z"/>
		<path style="fill:#000003;" d="M305.406,206.592c-16.473-16.472-38.3-25.92-59.888-25.92c-17.946,0-34.404,6.572-46.339,18.507
			c-13.432,13.433-19.917,32.058-18.258,52.444c1.606,19.734,10.723,38.834,25.673,53.783c16.47,16.474,38.298,25.922,59.886,25.922
			c17.948,0,34.404-6.573,46.339-18.508c13.434-13.433,19.917-32.058,18.258-52.444
			C329.473,240.642,320.356,221.541,305.406,206.592z M297.735,297.734c-7.906,7.905-19.008,12.259-31.257,12.259
			c-15.971,0-32.3-7.171-44.802-19.673c-11.375-11.375-18.298-25.732-19.491-40.428c-1.143-14.043,3.148-26.696,12.079-35.628
			c7.906-7.905,19.006-12.258,31.255-12.258c15.971,0,32.3,7.17,44.802,19.672c11.375,11.374,18.298,25.732,19.493,40.427
			C310.955,276.148,306.666,288.802,297.735,297.734z"/>
		<path style="fill:#000003;" d="M256.235,152.885c2.732,0,5.46-1.042,7.543-3.124l4.525-4.525c4.164-4.165,4.164-10.92,0-15.086
			c-4.166-4.164-10.918-4.164-15.086,0l-4.525,4.525c-4.166,4.165-4.166,10.92,0,15.086
			C250.776,151.843,253.506,152.885,256.235,152.885z"/>
		<path style="fill:#000003;" d="M248.222,362.235l-4.527,4.527c-4.166,4.165-4.166,10.92,0,15.086
			c2.083,2.082,4.813,3.124,7.541,3.124c2.732,0,5.46-1.042,7.544-3.124l4.527-4.527c4.164-4.165,4.164-10.919,0-15.086
			C259.141,358.069,252.389,358.069,248.222,362.235z"/>
		<path style="fill:#000003;" d="M417.171,166.857c1.15,0.396,2.323,0.585,3.475,0.585c4.425,0,8.562-2.777,10.085-7.196
			c0.516-1.503,1.086-2.997,1.69-4.439c2.271-5.436-0.291-11.683-5.727-13.956c-5.434-2.269-11.685,0.291-13.956,5.727
			c-0.779,1.862-1.51,3.788-2.177,5.721C408.641,158.868,411.602,164.939,417.171,166.857z"/>
		<circle style="fill:#000003;" cx="168.886" cy="343.116" r="21.332"/>
		<circle style="fill:#000003;" cx="343.116" cy="168.886" r="21.333"/>
	</g>
</g>
<g>
</g>
<g>
</g>
<g>
</g>
<g>
</g>
<g>
</g>
<g>
</g>
<g>
</g>
<g>
</g>
<g>
</g>
<g>
</g>
<g>
</g>
<g>
</g>
<g>
</g>
<g>
</g>
<g>
</g>
</svg>
