<?xml version="1.0" encoding="iso-8859-1"?>
<!-- Generator: Adobe Illustrator 19.0.0, SVG Export Plug-In . SVG Version: 6.00 Build 0)  -->
<svg version="1.1" id="Layer_1" xmlns="http://www.w3.org/2000/svg" xmlns:xlink="http://www.w3.org/1999/xlink" x="0px" y="0px"
	 viewBox="0 0 512 512" style="enable-background:new 0 0 512 512;" xml:space="preserve">
<path style="fill:#5B5D6E;" d="M392.828,450.207c-19.474,0-35.31-15.837-35.31-35.31V256c0-9.732-7.923-17.655-17.655-17.655h-35.31
	V220.69h35.31c19.474,0,35.31,15.837,35.31,35.31v158.897c0,9.732,7.923,17.655,17.655,17.655s17.655-7.923,17.655-17.655V167.724
	h17.655v247.172C428.138,434.37,412.301,450.207,392.828,450.207z"/>
<rect x="119.172" y="185.379" style="fill:#8CE16E;" width="194.207" height="300.138"/>
<path style="fill:#C7CFE2;" d="M339.862,512H92.69c-4.875,0-8.828-3.953-8.828-8.828v-17.655c0-4.875,3.953-8.828,8.828-8.828
	h247.172c4.875,0,8.828,3.953,8.828,8.828v17.655C348.69,508.047,344.737,512,339.862,512z"/>
<path style="fill:#9BF57D;" d="M313.379,194.207H119.172c-9.751,0-17.655-7.904-17.655-17.655V17.655
	C101.517,7.904,109.421,0,119.172,0h194.207c9.751,0,17.655,7.904,17.655,17.655v158.897
	C331.034,186.303,323.13,194.207,313.379,194.207z"/>
<path style="fill:#FFF082;" d="M295.724,167.724H136.828c-4.875,0-8.828-3.953-8.828-8.828V35.31c0-4.875,3.953-8.828,8.828-8.828
	h158.897c4.875,0,8.828,3.953,8.828,8.828v123.586C304.552,163.772,300.599,167.724,295.724,167.724z"/>
<path style="fill:#FFDC64;" d="M304.552,158.897v-40.281c-15.314-33.498-49.035-56.822-88.276-56.822S143.314,85.117,128,118.615
	v40.281c0,4.875,3.953,8.828,8.828,8.828h158.897C300.599,167.724,304.552,163.772,304.552,158.897z"/>
<path style="fill:#FFF082;" d="M260.026,336.511c2.422,24.78-14.069,48.954-38.823,51.636c-26.584,2.879-49.066-17.87-49.066-43.871
	c0-32.424,30.488-78.026,40.787-92.504c1.696-2.386,5.163-2.486,6.988-0.199C229.769,263.923,256.492,300.366,260.026,336.511z"/>
<path style="fill:#5B5D6E;" d="M255.966,89.44c-4.25-2.426-9.63-0.948-12.043,3.285l-25.474,44.586l15.328,8.758l25.474-44.586
	C261.673,97.25,260.199,91.858,255.966,89.44z"/>
<path style="fill:#FFC850;" d="M242.759,158.897c0-14.626-11.857-26.483-26.483-26.483c-14.626,0-26.483,11.857-26.483,26.483
	c0,3.112,0.636,6.054,1.622,8.828h49.722C242.123,164.95,242.759,162.008,242.759,158.897z"/>
<path style="fill:#AFB9D2;" d="M419.31,117.698l-45.906-61.203c-2.931-3.896-8.457-4.707-12.353-1.763
	c-3.905,2.922-4.698,8.457-1.768,12.358l15.889,21.184c0,0.001,0,0.001,0,0.002v44.138c0,19.47,15.837,35.31,35.31,35.31v17.655
	h17.655v-41.194C428.138,134.69,425,125.284,419.31,117.698z M410.483,150.069c-9.732,0-17.655-7.918-17.655-17.655v-20.602
	l12.362,16.482c3.414,4.552,5.293,10.194,5.293,15.892V150.069z"/>
<path style="fill:#FFDC64;" d="M216.276,249.944c-1.273,0.065-2.525,0.664-3.352,1.827c-10.297,14.478-40.786,60.081-40.786,92.504
	c0,24.376,19.761,44.137,44.138,44.138V249.944z"/>
<path style="fill:#FFC850;" d="M216.276,432.552c-4.879,0-8.828-3.948-8.828-8.828v-97.103c0-4.879,3.948-8.828,8.828-8.828
	s8.828,3.948,8.828,8.828v97.103C225.103,428.604,221.155,432.552,216.276,432.552z"/>
<g>
</g>
<g>
</g>
<g>
</g>
<g>
</g>
<g>
</g>
<g>
</g>
<g>
</g>
<g>
</g>
<g>
</g>
<g>
</g>
<g>
</g>
<g>
</g>
<g>
</g>
<g>
</g>
<g>
</g>
</svg>
