<?xml version="1.0" encoding="iso-8859-1"?>
<!-- Generator: Adobe Illustrator 19.0.0, SVG Export Plug-In . SVG Version: 6.00 Build 0)  -->
<svg version="1.1" id="Capa_1" xmlns="http://www.w3.org/2000/svg" xmlns:xlink="http://www.w3.org/1999/xlink" x="0px" y="0px"
	 viewBox="0 0 488.5 488.5" style="enable-background:new 0 0 488.5 488.5;" xml:space="preserve">
<g>
	<path d="M0,331.9V156.5c0-18.8,15.3-34.1,34.1-34.1h325.2c18.8,0,34.1,15.3,34.1,34.1v10.3h-22.6c-11.8,0-21.3,9.6-21.3,21.3v5.7
		c-16.1-3-28.2-17-28.2-33.9c0-2.9,0.4-5.7,1-8.4H69.1c0.4,2.1,0.6,4.2,0.6,6.3c0,19.1-15.5,34.5-34.5,34.5c-2.1,0-4.1-0.2-6.1-0.5
		v104.8c2-0.3,4-0.5,6.1-0.5c19.1,0,34.5,15.4,34.5,34.5c0,2.2-0.2,4.3-0.6,6.3h212l-0.1,12.4v13.4c0,1.1,0.2,2.3,0.3,3.4H34.1
		C15.3,366,0,350.7,0,331.9z M415.9,345.9h-45.2c-1.9,0-3.4,1.5-3.4,3.4v13.4c0,1.9,1.5,3.4,3.4,3.4h45.2c1.9,0,3.4-1.5,3.4-3.4
		v-13.5C419.3,347.4,417.8,345.9,415.9,345.9z M415.9,319h-45.2c-1.9,0-3.4,1.5-3.4,3.4v13.4c0,1.9,1.5,3.4,3.4,3.4h45.2
		c1.9,0,3.4-1.5,3.4-3.4v-13.4C419.3,320.5,417.8,319,415.9,319z M415.9,292.2h-45.2c-1.9,0-3.4,1.5-3.4,3.4V309
		c0,1.9,1.5,3.4,3.4,3.4h45.2c1.9,0,3.4-1.5,3.4-3.4v-13.4C419.3,293.7,417.8,292.2,415.9,292.2z M415.9,265.3h-45.2
		c-1.9,0-3.4,1.5-3.4,3.4v13.4c0,1.9,1.5,3.4,3.4,3.4h45.2c1.9,0,3.4-1.5,3.4-3.4v-13.4C419.3,266.8,417.8,265.3,415.9,265.3z
		 M415.9,238.5h-45.2c-1.9,0-3.4,1.5-3.4,3.4v13.3c0,1.9,1.5,3.4,3.4,3.4h45.2c1.9,0,3.4-1.5,3.4-3.4v-13.4
		C419.3,240,417.8,238.5,415.9,238.5z M415.9,211.6h-45.2c-1.9,0-3.4,1.5-3.4,3.4v13.4c0,1.9,1.5,3.4,3.4,3.4h45.2
		c1.9,0,3.4-1.5,3.4-3.4V215C419.3,213.1,417.8,211.6,415.9,211.6z M415.9,184.8h-45.2c-1.9,0-3.4,1.5-3.4,3.4v13.4
		c0,1.9,1.5,3.4,3.4,3.4h45.2c1.9,0,3.4-1.5,3.4-3.4v-13.4C419.3,186.3,417.8,184.8,415.9,184.8z M485.1,345.9h-45.2
		c-1.9,0-3.4,1.5-3.4,3.4v13.4c0,1.9,1.5,3.4,3.4,3.4h45.2c1.9,0,3.4-1.5,3.4-3.4v-13.5C488.4,347.4,486.9,345.9,485.1,345.9z
		 M485.1,319h-45.2c-1.9,0-3.4,1.5-3.4,3.4v13.4c0,1.9,1.5,3.4,3.4,3.4h45.2c1.9,0,3.4-1.5,3.4-3.4v-13.4
		C488.4,320.5,486.9,319,485.1,319z M485.1,292.2h-45.2c-1.9,0-3.4,1.5-3.4,3.4V309c0,1.9,1.5,3.4,3.4,3.4h45.2
		c1.9,0,3.4-1.5,3.4-3.4v-13.4C488.4,293.7,486.9,292.2,485.1,292.2z M346.8,345.9h-45.2c-1.9,0-3.4,1.5-3.4,3.4v13.4
		c0,1.9,1.5,3.4,3.4,3.4h45.2c1.9,0,3.4-1.5,3.4-3.4v-13.5C350.2,347.4,348.7,345.9,346.8,345.9z M350.2,322.4
		c0-1.9-1.5-3.4-3.4-3.4h-45.2c-1.9,0-3.4,1.5-3.4,3.4v13.4c0,1.9,1.5,3.4,3.4,3.4h45.2c1.9,0,3.4-1.5,3.4-3.4V322.4z M350.2,295.6
		c0-1.9-1.5-3.4-3.4-3.4h-45.2c-1.9,0-3.4,1.5-3.4,3.4V309c0,1.9,1.5,3.4,3.4,3.4h45.2c1.9,0,3.4-1.5,3.4-3.4V295.6z M350.2,268.7
		c0-1.9-1.5-3.4-3.4-3.4h-45.2c-1.9,0-3.4,1.5-3.4,3.4v13.4c0,1.9,1.5,3.4,3.4,3.4h45.2c1.9,0,3.4-1.5,3.4-3.4V268.7z M350.2,241.8
		c0-1.9-1.5-3.4-3.4-3.4h-45.2c-1.9,0-3.4,1.5-3.4,3.4v13.4c0,1.9,1.5,3.4,3.4,3.4h45.2c1.9,0,3.4-1.5,3.4-3.4V241.8z M196.7,169.5
		c41.2,0,74.7,33.4,74.7,74.7c0,41.2-33.4,74.7-74.7,74.7S122,285.5,122,244.2C122,203,155.4,169.5,196.7,169.5z M196.8,193.1
		c-0.9,0-1.9,0-2.8,0c-3,0.1-3.5,0.6-3.6,3.6c0,1.4,0,2.7,0,4.1c0,4,0,4-3.9,5.4c-9.3,3.4-15,9.7-15.7,19.9c-0.5,9,4.1,15,11.5,19.5
		c4.5,2.7,9.6,4.3,14.4,6.5c1.9,0.8,3.7,1.8,5.2,3.1c4.6,3.8,3.8,10.2-1.7,12.6c-2.9,1.3-6,1.6-9.2,1.2c-4.9-0.6-9.6-1.9-14.1-4.2
		c-2.6-1.4-3.4-1-4.2,1.8c-0.8,2.4-1.4,4.9-2.1,7.3c-0.9,3.3-0.6,4.1,2.6,5.6c4,1.9,8.3,2.9,12.7,3.6c3.4,0.5,3.5,0.7,3.6,4.2
		c0,1.6,0,3.2,0,4.8c0,2,1,3.2,3.1,3.2c2.4,0,4.8,0,7.1,0c1.9,0,2.9-1.1,2.9-3.1c0-2.2,0.1-4.4,0-6.6s0.9-3.4,3-4
		c5-1.4,9.2-4,12.5-8c9-11,5.6-27-7.2-34.1c-4-2.2-8.3-3.9-12.5-5.7c-2.4-1-4.8-2.2-6.9-3.9c-4.1-3.3-3.3-8.5,1.5-10.6
		c1.3-0.6,2.8-0.8,4.2-0.9c5.5-0.3,10.8,0.7,15.8,3.1c2.5,1.2,3.3,0.8,4.2-1.8c0.9-2.7,1.6-5.5,2.4-8.3c0.5-1.9-0.1-3.1-1.9-3.9
		c-3.2-1.4-6.5-2.4-10-3c-4.5-0.7-4.5-0.7-4.5-5.3C203.2,193.1,203.2,193.1,196.8,193.1z M67.4,244.2c0,11.4,9.3,20.7,20.7,20.7
		s20.7-9.3,20.7-20.7s-9.3-20.7-20.7-20.7S67.4,232.8,67.4,244.2z"/>
</g>
<g>
</g>
<g>
</g>
<g>
</g>
<g>
</g>
<g>
</g>
<g>
</g>
<g>
</g>
<g>
</g>
<g>
</g>
<g>
</g>
<g>
</g>
<g>
</g>
<g>
</g>
<g>
</g>
<g>
</g>
</svg>
