<?xml version="1.0" encoding="iso-8859-1"?>
<!-- Generator: Adobe Illustrator 19.0.0, SVG Export Plug-In . SVG Version: 6.00 Build 0)  -->
<svg version="1.1" id="Layer_1" xmlns="http://www.w3.org/2000/svg" xmlns:xlink="http://www.w3.org/1999/xlink" x="0px" y="0px"
	 viewBox="0 0 295.238 295.238" style="enable-background:new 0 0 295.238 295.238;" xml:space="preserve">
<g>
	<g>
		<rect x="85.714" y="100" style="fill:#F9BA48;" width="100" height="66.667"/>
		<path style="fill:#333333;" d="M276.19,0H28.571c-7.876,0-14.286,6.41-14.286,14.286v138.095c0,7.876,6.41,14.286,14.286,14.286
			h38.095v85.714H4.762v9.524c0,18.381,14.952,33.333,33.333,33.333h133.333c18.381,0,33.333-14.952,33.333-33.333v-95.238h71.429
			c7.876,0,14.286-6.41,14.286-14.286V14.286C290.476,6.41,284.067,0,276.19,0z M23.81,152.381V14.286
			c0-2.624,2.138-4.762,4.762-4.762h23.81v147.619h-23.81C25.948,157.143,23.81,155.005,23.81,152.381z M38.095,285.714
			c-13.129,0-23.81-10.681-23.81-23.81h119.048c0,9.319,3.843,17.757,10.024,23.81H38.095z M195.238,261.905
			c0,13.129-10.681,23.81-23.81,23.81h-4.762c-13.129,0-23.81-10.681-23.81-23.81v-9.524H76.19V100
			c0-13.129,10.681-23.81,23.81-23.81h105.262c-6.181,6.052-10.024,14.49-10.024,23.81L195.238,261.905L195.238,261.905z
			 M219.048,66.667H100c-5.119,0-9.948,1.19-14.286,3.262V57.143h133.333v9.524H219.048z M219.048,78.21v7.505h-9.4
			C212.09,82.481,215.29,79.857,219.048,78.21z M204.762,100c0-1.629,0.167-3.224,0.481-4.762h23.329V76.19v-9.524V47.619H76.19
			v29.095c-5.88,6.015-9.523,14.229-9.523,23.286v57.143h-4.762V9.524h171.428v147.619h-28.571V100z M280.952,85.714v66.667
			c0,2.624-2.138,4.762-4.762,4.762h-33.333V85.714V9.524h33.333c2.624,0,4.762,2.138,4.762,4.762V85.714z"/>
		<rect x="33.333" y="52.381" style="fill:#333333;" width="9.524" height="38.095"/>
		<rect x="33.333" y="100" style="fill:#333333;" width="9.524" height="14.286"/>
		<path style="fill:#333333;" d="M261.905,66.667c-10.505,0-19.048,8.543-19.048,19.048s8.543,19.048,19.048,19.048
			c10.505,0,19.048-8.543,19.048-19.048S272.409,66.667,261.905,66.667z M261.905,95.238c-5.252,0-9.524-4.271-9.524-9.524
			c0-5.252,4.271-9.524,9.524-9.524s9.524,4.271,9.524,9.524C271.429,90.967,267.157,95.238,261.905,95.238z"/>
		<rect x="85.714" y="180.952" style="fill:#333333;" width="100" height="9.524"/>
		<rect x="85.714" y="204.762" style="fill:#333333;" width="100" height="9.524"/>
		<rect x="85.714" y="228.571" style="fill:#333333;" width="100" height="9.524"/>
	</g>
</g>
<g>
</g>
<g>
</g>
<g>
</g>
<g>
</g>
<g>
</g>
<g>
</g>
<g>
</g>
<g>
</g>
<g>
</g>
<g>
</g>
<g>
</g>
<g>
</g>
<g>
</g>
<g>
</g>
<g>
</g>
</svg>
