<?xml version="1.0" encoding="iso-8859-1"?>
<!-- Generator: Adobe Illustrator 19.0.0, SVG Export Plug-In . SVG Version: 6.00 Build 0)  -->
<svg version="1.1" id="Layer_1" xmlns="http://www.w3.org/2000/svg" xmlns:xlink="http://www.w3.org/1999/xlink" x="0px" y="0px"
	 viewBox="0 0 512.656 512.656" style="enable-background:new 0 0 512.656 512.656;" xml:space="preserve">
<g transform="translate(1)">
	<polygon style="fill:#FFE100;" points="374.467,503.795 348.867,8.862 161.133,8.862 135.533,503.795 	"/>
	<polygon style="fill:#FFA800;" points="348.867,8.862 323.267,8.862 348.867,503.795 374.467,503.795 	"/>
	<polygon style="fill:#FFFFFF;" points="161.133,17.395 186.733,17.395 161.133,512.328 135.533,512.328 	"/>
	<g>
		<path style="fill:#00DA6C;" d="M427.373,362.995c-22.187,26.453-7.68,69.12,26.453,72.533c1.707,0,3.413,0,5.12,0h0.853
			c36.693-0.853,54.613-45.227,30.72-72.533l-20.48-24.747c-5.973-6.827-16.213-6.827-22.187,0L427.373,362.995z"/>
		<path style="fill:#00DA6C;" d="M17.773,98.462c-22.187,26.453-7.68,69.12,26.453,72.533c1.707,0,3.413,0,5.12,0H50.2
			c36.693-0.853,54.613-45.227,30.72-72.533L61.293,73.715c-5.973-6.827-16.213-6.827-22.187,0L17.773,98.462z"/>
		<path style="fill:#00DA6C;" d="M17.773,362.995c-22.187,26.453-7.68,69.12,26.453,72.533c1.707,0,3.413,0,5.12,0H50.2
			c36.693-0.853,54.613-45.227,30.72-72.533l-20.48-24.747c-5.973-6.827-16.213-6.827-22.187,0L17.773,362.995z"/>
		<path style="fill:#00DA6C;" d="M427.373,98.462c-22.187,26.453-7.68,69.12,26.453,72.533c1.707,0,3.413,0,5.12,0h0.853
			c36.693-0.853,54.613-45.227,30.72-72.533l-20.48-24.747c-5.973-6.827-16.213-6.827-22.187,0L427.373,98.462z"/>
	</g>
	<g>
		<path style="fill:#00AD55;" d="M492.227,98.462l-20.48-24.747c-5.973-6.827-16.213-6.827-22.187,0l-1.707,1.707l18.773,22.187
			c21.333,24.747,9.387,62.293-19.627,70.827c2.56,0.853,5.12,1.707,7.68,1.707c1.707,0,3.413,0,5.12,0h0.853
			C497.347,170.142,515.267,125.768,492.227,98.462"/>
		<path style="fill:#00AD55;" d="M492.227,362.995l-20.48-24.747c-5.973-6.827-16.213-6.827-22.187,0l-1.707,1.707l18.773,22.187
			c21.333,24.747,9.387,62.293-19.627,70.827c2.56,0.853,5.12,1.707,7.68,1.707c1.707,0,3.413,0,5.12,0h0.853
			C497.347,434.675,515.267,390.302,492.227,362.995"/>
		<path style="fill:#00AD55;" d="M82.627,98.462L61.293,73.715c-5.973-6.827-16.213-6.827-22.187,0L37.4,75.422l18.773,22.187
			c21.333,24.747,9.387,62.293-19.627,70.827c2.56,0.853,5.12,1.707,7.68,1.707c1.707,0,3.413,0,5.12,0H50.2
			C87.747,170.142,105.667,125.768,82.627,98.462"/>
		<path style="fill:#00AD55;" d="M82.627,362.995l-20.48-24.747c-5.973-6.827-16.213-6.827-22.187,0l-1.707,1.707l18.773,22.187
			c21.333,24.747,9.387,62.293-19.627,70.827c2.56,0.853,5.12,1.707,7.68,1.707c1.707,0,3.413,0,5.12,0h0.853
			C87.747,434.675,105.667,390.302,82.627,362.995"/>
	</g>
	<path d="M502.467,17.395H7.533C2.413,17.395-1,13.982-1,8.862s3.413-8.533,8.533-8.533h494.933c5.12,0,8.533,3.413,8.533,8.533
		S507.587,17.395,502.467,17.395z"/>
	<path d="M374.467,512.328H135.533c-2.56,0-4.267-0.853-5.973-2.56c-1.707-1.707-2.56-4.267-2.56-5.973L152.6,8.862
		c0-5.12,4.267-8.533,8.533-8.533h187.733c4.267,0,8.533,3.413,8.533,7.68L383,502.942c0,2.56-0.853,4.267-2.56,5.973
		C378.733,511.475,377.027,512.328,374.467,512.328z M144.92,495.262h221.013L341.187,17.395H168.813L144.92,495.262z"/>
	<path d="M255,512.328c-5.12,0-8.533-3.413-8.533-8.533v-51.2c0-5.12,3.413-8.533,8.533-8.533s8.533,3.413,8.533,8.533v51.2
		C263.533,508.915,260.12,512.328,255,512.328z"/>
	<path d="M255,401.395c-5.12,0-8.533-3.413-8.533-8.533v-51.2c0-5.12,3.413-8.533,8.533-8.533s8.533,3.413,8.533,8.533v51.2
		C263.533,397.982,260.12,401.395,255,401.395z"/>
	<path d="M255,290.462c-5.12,0-8.533-3.413-8.533-8.533v-51.2c0-5.12,3.413-8.533,8.533-8.533s8.533,3.413,8.533,8.533v51.2
		C263.533,287.048,260.12,290.462,255,290.462z"/>
	<path d="M255,179.528c-5.12,0-8.533-3.413-8.533-8.533v-51.2c0-5.12,3.413-8.533,8.533-8.533s8.533,3.413,8.533,8.533v51.2
		C263.533,176.115,260.12,179.528,255,179.528z"/>
	<path d="M255,68.595c-5.12,0-8.533-3.413-8.533-8.533v-51.2c0-5.12,3.413-8.533,8.533-8.533s8.533,3.413,8.533,8.533v51.2
		C263.533,65.182,260.12,68.595,255,68.595z"/>
	<path d="M50.2,179.528c-1.707,0-4.267,0-5.973,0c-18.773-1.707-34.133-13.653-40.96-31.573C-4.413,129.182-1,108.702,11.8,93.342
		l20.48-24.747c9.387-11.093,26.453-11.093,35.84,0L88.6,93.342c13.653,16.213,16.213,37.547,7.68,56.32
		c-8.533,17.92-25.6,29.867-45.227,29.867H50.2z M50.2,77.128c-0.853,0-2.56,0-4.267,1.707L24.6,103.582
		c-8.533,10.24-11.093,24.747-5.973,37.547c5.12,11.947,14.507,19.627,27.307,21.333c1.707,0,3.413,0,4.267,0v8.533l0.853-8.533
		c13.653,0,24.747-7.68,29.867-20.48c5.973-12.8,4.267-28.16-5.12-38.4L55.32,78.835C53.613,77.128,51.053,77.128,50.2,77.128z"/>
	<path d="M50.2,222.195c-5.12,0-8.533-3.413-8.533-8.533v-76.8c0-5.12,3.413-8.533,8.533-8.533s8.533,3.413,8.533,8.533v76.8
		C58.733,218.782,55.32,222.195,50.2,222.195z"/>
	<path d="M50.2,444.062c-1.707,0-4.267,0-5.973,0c-18.773-1.707-34.133-13.653-40.96-31.573C-4.413,393.715-1,373.235,11.8,357.875
		l20.48-24.747c8.533-10.24,26.453-10.24,34.987,0l20.48,24.747c13.653,16.213,16.213,37.547,7.68,56.32
		C86.893,432.115,69.827,444.062,50.2,444.062L50.2,444.062z M50.2,341.662c-0.853,0-3.413,0-4.267,2.56L24.6,368.115
		c-8.533,10.24-11.093,24.747-5.973,37.547c5.12,11.947,14.507,19.627,27.307,21.333c1.707,0,2.56,0,4.267,0v8.533l0.853-8.533
		c13.653,0,24.747-7.68,29.867-20.48c5.973-12.8,4.267-28.16-5.12-38.4l-20.48-24.747C53.613,341.662,51.053,341.662,50.2,341.662z"
		/>
	<path d="M50.2,486.728c-5.12,0-8.533-3.413-8.533-8.533v-76.8c0-5.12,3.413-8.533,8.533-8.533s8.533,3.413,8.533,8.533v76.8
		C58.733,483.315,55.32,486.728,50.2,486.728z"/>
	<path d="M459.8,179.528c-1.707,0-4.267,0-5.973,0c-18.773-1.707-34.133-13.653-40.96-31.573
		c-7.68-18.773-4.267-39.253,8.533-54.613l20.48-24.747c8.533-10.24,26.453-10.24,34.987,0l20.48,24.747
		c13.653,16.213,16.213,37.547,7.68,57.173c-8.533,17.92-25.6,29.867-45.227,29.867L459.8,179.528z M459.8,77.128
		c-0.853,0-3.413,0-4.267,2.56L434.2,103.582c-8.533,10.24-11.093,24.747-5.973,37.547c5.12,11.947,14.507,19.627,27.307,21.333
		c1.707,0,2.56,0,4.267,0v8.533l0.853-8.533c13.653,0,24.747-7.68,29.867-20.48c5.973-12.8,4.267-28.16-5.12-38.4l-20.48-24.747
		C463.213,77.128,460.653,77.128,459.8,77.128z"/>
	<path d="M459.8,222.195c-5.12,0-8.533-3.413-8.533-8.533v-76.8c0-5.12,3.413-8.533,8.533-8.533s8.533,3.413,8.533,8.533v76.8
		C468.333,218.782,464.92,222.195,459.8,222.195z"/>
	<path d="M459.8,444.062c-1.707,0-4.267,0-5.973,0c-18.773-1.707-34.133-13.653-40.96-31.573
		c-7.68-18.773-4.267-39.253,8.533-54.613l21.333-24.747c4.267-5.12,11.093-8.533,17.92-8.533l0,0c6.827,0,12.8,2.56,17.92,8.533
		l20.48,24.747c13.653,16.213,16.213,37.547,7.68,56.32c-8.533,17.92-25.6,29.867-45.227,29.867L459.8,444.062z M459.8,341.662
		c-0.853,0-3.413,0-4.267,2.56L434.2,368.115c-8.533,10.24-11.093,24.747-5.973,37.547c5.12,11.947,14.507,19.627,27.307,21.333
		c1.707,0,2.56,0,4.267,0v8.533l0.853-8.533c13.653,0,24.747-7.68,29.867-20.48c5.973-12.8,4.267-28.16-5.12-38.4l-20.48-24.747
		C463.213,341.662,460.653,341.662,459.8,341.662z"/>
	<path d="M459.8,486.728c-5.12,0-8.533-3.413-8.533-8.533v-76.8c0-5.12,3.413-8.533,8.533-8.533s8.533,3.413,8.533,8.533v76.8
		C468.333,483.315,464.92,486.728,459.8,486.728z"/>
</g>
<g>
</g>
<g>
</g>
<g>
</g>
<g>
</g>
<g>
</g>
<g>
</g>
<g>
</g>
<g>
</g>
<g>
</g>
<g>
</g>
<g>
</g>
<g>
</g>
<g>
</g>
<g>
</g>
<g>
</g>
</svg>
