<svg height='300px' width='300px'  fill="#000000" xmlns="http://www.w3.org/2000/svg" xmlns:xlink="http://www.w3.org/1999/xlink" version="1.1" x="0px" y="0px" viewBox="0 0 209.284 254.558" style="enable-background:new 0 0 209.284 254.558;" xml:space="preserve"><g><path d="M35.719,26.066c0.081,0.606,0.403,1.193,0.94,1.75c-0.943,2.483-1.465,5.174-1.465,7.988c0,12.428,10.074,22.5,22.5,22.5   c12.426,0,22.5-10.072,22.5-22.5c0-2.814-0.521-5.505-1.465-7.988c0.537-0.557,0.859-1.144,0.94-1.75   c2.618,0.092,4.631-0.331,5.521-1.732C88.173,19.632,80.527,0,57.694,0C34.86,0,27.216,19.632,30.198,24.334   C31.087,25.736,33.101,26.159,35.719,26.066z M57.694,4.094c2.116,0,3.881,1.469,4.36,3.438c2.524-0.352,5.64-0.855,5.64-0.855   s-2.919,2.379-5.814,3.541c-0.652,1.681-2.275,2.876-4.186,2.876c-1.911,0-3.533-1.195-4.186-2.875   c-2.896-1.162-5.814-3.542-5.814-3.542s3.115,0.503,5.64,0.855C53.814,5.563,55.576,4.094,57.694,4.094z M57.694,15.428   c12.15,0,22,3.135,22,7c0,0.575-0.223,1.133-0.633,1.667c-2.352-3.06-11.023-5.333-21.367-5.333   c-10.344,0-19.016,2.272-21.367,5.333c-0.41-0.534-0.633-1.092-0.633-1.667C35.694,18.563,45.544,15.428,57.694,15.428z"></path><path d="M34.901,65.428h-3.634c-0.658,0-1.3,0.079-1.925,0.213c-0.918,0.059-1.843,0.257-2.745,0.615v-0.002   c-1.165,0.452-7.998,3.494-14.435,12.419C5.701,87.579-0.032,102.108,0,124.266c0,5.804,0.382,12.146,1.235,19.079   c0.561,4.56,4.441,7.9,8.923,7.901c0.366,0,0.737-0.023,1.11-0.068c4.934-0.607,8.441-5.099,7.833-10.032   c-0.772-6.26-1.104-11.866-1.101-16.879c0.023-15.357,3.06-25.009,6.321-31.115l8.962,38.181c-0.143,0.49-0.266,0.99-0.354,1.505   L14.842,238.686c-1.256,7.352,3.683,14.327,11.032,15.583c0.77,0.131,1.535,0.195,2.29,0.195c6.457,0,12.166-4.648,13.292-11.228   l15.532-90.898h1.408l15.533,90.899c1.124,6.58,6.834,11.228,13.292,11.228c0.755,0,1.52-0.064,2.289-0.195   c7.349-1.257,12.29-8.232,11.032-15.583L82.454,132.838c-0.088-0.513-0.209-1.01-0.351-1.498l0.07-0.3L34.901,65.428z"></path><path d="M116.769,105.445c-0.316-0.27-0.637-0.533-0.948-0.811c-7.175-6.376-13.067-14.852-17.002-21.685   c-1.973-3.415-3.472-6.413-4.46-8.517c-0.039-0.083-0.072-0.156-0.109-0.236c-0.42-1.635-1.123-3.126-2.046-4.398   c-1.149-1.837-2.896-3.158-4.878-3.793c-1.011-0.373-2.086-0.577-3.203-0.577H42.297l41.694,57.869l5.172-22.033   c3.937,5.625,8.776,11.536,14.677,16.805c5.06,4.508,10.945,8.546,17.694,11.333c-3.459-6.022-5.269-12.334-5.25-18.431   C116.282,109.113,116.451,107.27,116.769,105.445z"></path><path d="M188.463,152.315c0.348,1.62-0.685,3.216-2.305,3.562c-0.212,0.046-0.424,0.067-0.632,0.067   c-1.385,0-2.63-0.964-2.93-2.372c-0.021-0.099-0.051-0.198-0.073-0.297c-0.126,0.089-0.247,0.178-0.374,0.268   c-1.691,1.189-3.68,1.82-5.746,1.82c-0.674,0-1.335-0.084-1.983-0.215c-2.493,2.236-5.947,3.814-10.636,3.795   c-0.027,0-0.055,0-0.08,0c-4.648,0.001-8.077-1.572-10.557-3.795c-0.648,0.131-1.311,0.215-1.984,0.215   c-2.065,0-4.053-0.631-5.744-1.82c-0.128-0.09-0.251-0.181-0.378-0.271c-0.023,0.101-0.056,0.201-0.077,0.301   c-0.304,1.408-1.547,2.372-2.931,2.372c-0.209,0-0.421-0.022-0.634-0.067c-1.62-0.347-2.65-1.941-2.305-3.561   c0.218-0.98,0.498-1.934,0.804-2.876c-1.094-0.859-2.147-1.719-3.161-2.579v6.031v89.303c0,6.83,5.537,12.363,12.365,12.363   c6.826,0,12.363-5.533,12.363-12.363v-81.378c0.716,0.075,1.453,0.126,2.234,0.126h0.164c0.782,0,1.52-0.052,2.236-0.126v81.378   c0,6.83,5.537,12.363,12.365,12.363c6.826,0,12.363-5.533,12.363-12.363v-89.303v-6.029c-1.016,0.862-2.072,1.723-3.167,2.584   C187.966,150.386,188.246,151.338,188.463,152.315z"></path><path d="M173.782,137.386c-0.646,0.474-1.304,0.95-1.988,1.431c-3.613,2.543-4.482,7.531-1.941,11.146   c1.559,2.214,4.035,3.398,6.551,3.398c1.59,0,3.195-0.473,4.594-1.457c0.326-0.229,0.64-0.458,0.959-0.687   C180.116,145.549,176.152,140.195,173.782,137.386z"></path><path d="M122.021,96.267c-2.18,4.127-3.742,9.131-3.738,14.711c-0.018,6.436,2.123,13.396,6.715,20.205   c3.622,5.389,8.719,10.774,15.611,16.264c2.334-5.957,6.035-10.909,8.444-13.755c-5.058-4.214-8.525-8.068-10.768-11.42   c-3.125-4.701-3.982-8.291-4-11.293c0.006-2.611,0.693-4.963,1.896-7.262c0.732-1.411,1.684-2.764,2.729-4.023   c-0.306,2.481-0.637,4.335-0.953,4.944c-0.545,1.042-0.943,2.047-1.219,3.05v6.676c0.547,2.142,1.596,4.365,3.213,6.8   c2.345,3.505,5.892,7.247,10.424,11.023c0.619-0.679,1.009-1.073,1.034-1.115v0.002c1.171-1.173,3.071-1.173,4.242,0   c1.173,1.17,1.173,3.068,0,4.241c0,0.003-0.104,0.104-0.338,0.353c-0.054,0.057-0.133,0.143-0.198,0.214   c0.593,0.434,1.192,0.868,1.809,1.301c4.51,3.172,5.598,9.42,2.428,13.93c-1.015,1.445-2.387,2.559-3.944,3.289   c2.048,1.522,4.729,2.531,8.378,2.543c3.635-0.014,6.339-1.015,8.391-2.538c-1.563-0.729-2.939-1.846-3.957-3.294   c-3.17-4.51-2.082-10.758,2.428-13.93c0.615-0.432,1.214-0.865,1.805-1.298c-0.068-0.074-0.146-0.158-0.204-0.216   c-0.233-0.251-0.337-0.352-0.339-0.352h0.002c-1.173-1.173-1.173-3.071-0.002-4.242c1.173-1.173,3.071-1.173,4.244-0.002   c0.025,0.042,0.417,0.437,1.037,1.119c4.535-3.778,8.084-7.521,10.43-11.028c1.615-2.433,2.664-4.654,3.211-6.794v-6.699   c-0.275-0.997-0.676-1.997-1.219-3.033c-0.316-0.609-0.646-2.463-0.952-4.944c1.045,1.259,1.997,2.612,2.73,4.023   c1.201,2.299,1.891,4.65,1.896,7.262c-0.018,3.002-0.875,6.592-4,11.293c-2.244,3.354-5.713,7.209-10.775,11.425   c2.41,2.848,6.11,7.8,8.442,13.756c6.897-5.491,11.997-10.878,15.62-16.269c4.592-6.809,6.732-13.77,6.713-20.205   c0.004-5.58-1.557-10.584-3.736-14.711c-2.184-4.143-4.961-7.484-7.641-10.15c-4.625-4.573-9.012-7.217-10.414-8.02   c-0.228-0.13-0.386-0.217-0.443-0.25v0.002c-0.038-0.021-0.077-0.035-0.116-0.055c-0.791-0.453-1.67-0.767-2.604-0.916   c-3.465,5.354-8.762,9.099-14.992,10.55c-1.834,0.428-3.709,0.645-5.576,0.645c-8.539,0-16.163-4.346-20.56-11.188   c-0.925,0.152-1.793,0.465-2.576,0.915c-0.035,0.019-0.071,0.032-0.107,0.051v-0.002c-0.058,0.033-0.216,0.12-0.443,0.25   c-1.402,0.803-5.789,3.447-10.414,8.02C126.98,88.782,124.204,92.124,122.021,96.267z"></path><path d="M157.714,149.964c2.541-3.615,1.674-8.604-1.941-11.146c-0.685-0.481-1.342-0.957-1.986-1.43   c-0.78,0.92-1.728,2.098-2.724,3.491c-2.042,2.84-4.21,6.536-5.449,10.343c0.318,0.229,0.631,0.456,0.956,0.685   c1.4,0.984,3.006,1.457,4.596,1.457C153.681,153.362,156.157,152.178,157.714,149.964z"></path><ellipse transform="matrix(0.9739 -0.2268 0.2268 0.9739 -10.1495 38.7998)" cx="163.783" cy="63.571" rx="22.495" ry="22.495"></ellipse></g></svg>